#N canvas 88 264 2136 1037 12;
#X obj 30 570 cnv 15 969 521 empty empty empty 20 12 0 14 #dddddd #404040
0;
#X obj -1 1 cnv 15 603 62 empty empty empty 20 12 0 14 #e0e0e0 #404040
0;
#X obj -1 49 cnv 15 603 25 empty empty empty 20 12 0 14 #b8b8b8 #404040
0;
#X text 9 29 by 8v01d (infinite void), f 82;
#X obj -1 72 cnv 15 603 25 empty empty empty 20 12 0 14 #7c7c7c #404040
0;
#X obj -1 95 cnv 15 603 25 empty empty empty 20 12 0 14 #606060 #fcfcfc
0;
#X text 9 74 Contact: thisis8v01d@gmail.com, f 82;
#X obj 460 625 tgl 15 0 empty empty empty 17 7 0 10 #fcfcfc #000000
#000000 1 1;
#X obj 82 721 spigot;
#X obj 121 697 tgl 15 0 empty empty empty 17 7 0 10 #fcfcfc #000000
#000000 0 1;
#X obj 82 761 i;
#X obj 82 790 % 6;
#X obj 122 761 + 1;
#X obj 82 830 sel 0 1 2 3 4;
#X obj 182 761 random 5;
#X obj 182 721 spigot;
#X obj 221 697 tgl 15 0 empty empty empty 17 7 0 10 #fcfcfc #000000
#000000 0 1;
#X msg 520 619 150;
#X msg 560 619 250;
#X msg 600 619 500;
#X obj 460 649 metro 150;
#X obj 460 590 loadbang;
#X obj 82 859 bng 15 250 50 0 empty empty empty 17 7 0 10 #fcfcfc #000000
#000000;
#X obj 100 859 bng 15 250 50 0 empty empty empty 17 7 0 10 #fcfcfc
#000000 #000000;
#X obj 118 859 bng 15 250 50 0 empty empty empty 17 7 0 10 #fcfcfc
#000000 #000000;
#X obj 136 859 bng 15 250 50 0 empty empty empty 17 7 0 10 #fcfcfc
#000000 #000000;
#X obj 154 859 bng 15 250 50 0 empty empty empty 17 7 0 10 #fcfcfc
#000000 #000000;
#X obj 172 859 bng 15 250 50 0 empty empty empty 17 7 0 10 #fcfcfc
#000000 #000000;
#X obj 1120 20 cnv 15 126 151 empty empty empty 20 12 0 14 #dddddd
#404040 0;
#X obj 620 20 cnv 15 465 154 empty empty empty 20 12 0 14 #fcc4c4 #404040
0;
#X msg 725 84 stop;
#X obj 628 112 r~ record;
#X obj 725 30 bng 20 250 50 0 empty empty empty 17 7 0 10 #fc2828 #000000
#000000;
#X obj 700 30 bng 20 250 50 0 empty empty empty 17 7 0 10 #14e814 #000000
#000000;
#X obj 700 112 writesf~ 2;
#X obj 930 90 r~ \$0-master-output;
#X obj 966 142 s~ record;
#X obj 930 115 *~ 1;
#X obj 930 142 dac~;
#N canvas 2327 517 450 279 (subpatch) 0;
#X array \$0-a 1000 float 5 black black;
#A 0 0 0 0 0 0 0 0 0 0 0 0 0 0 0 0 0 0 0 0 0 0 0 0 0 0 0 0 0 0 0 0
0 0 0 0 0 0 0 0 0 0 0 0 0 0 0 0 0 0 0 0 0 0 0 0 0 0 0 0 0 0 0 0 0 0
0 0 0 0 0 0 0 0 0 0 0 0 0 0 0 0 0 0 0 0 0 0 0 0 0 0 0 0 0 0 0 0 0 0
0 0 0 0 0 0 0 0 0 0 0 0 0 0 0 0 0 0 0 0 0 0 0 0 0 0 0 0 0 0 0 0 0 0
0 0 0 0 0 0 0 0 0 0 0 0 0 0 0 0 0 0 0 0 0 0 0 0 0 0 0 0 0 0 0 0 0 0
0 0 0 0 0 0 0 0 0 0 0 0 0 0 0 0 0 0 0 0 0 0 0 0 0 0 0 0 0 0 0 0 0 0
0 0 0 0 0 0 0 0 0 0 0 0 0 0 0 0 0 0 0 0 0 0 0 0 0 0 0 0 0 0 0 0 0 0
0 0 0 0 0 0 0 0 0 0 0 0 0 0 0 0 0 0 0 0 0 0 0 0 0 0 0 0 0 0 0 0 0 0
0 0 0 0 0 0 0 0 0 0 0 0 0 0 0 0 0 0 0 0 0 0 0 0 0 0 0 0 0 0 0 0 0 0
0 0 0 0 0 0 0 0 0 0 0 0 0 0 0 0 0 0 0 0 0 0 0 0 0 0 0 0 0 0 0 0 0 0
0 0 0 0 0 0 0 0 0 0 0 0 0 0 0 0 0 0 0 0 0 0 0 0 0 0 0 0 0 0 0 0 0 0
0 0 0 0 0 0 0 0 0 0 0 0 0 0 0 0 0 0 0 0 0 0 0 0 0 0 0 0 0 0 0 0 0 0
0 0 0 0 0 0 0 0 0 0 0 0 0 0 0 0 0 0 0 0 0 0 0 0 0 0 0 0 0 0 0 0 0 0
0 0 0 0 0 0 0 0 0 0 0 0 0 0 0 0 0 0 0 0 0 0 0 0 0 0 0 0 0 0 0 0 0 0
0 0 0 0 0 0 0 0 0 0 0 0 0 0 0 0 0 0 0 0 0 0 0 0 0 0 0 0 0 0 0 0 0 0
0 0 0 0 0 0 0 0 0 0 0 0 0 0 0 0 0 0 0 0 0 0 0 0 0 0 0 0 0 0 0 0 0 0
0 0 0 0 0 0 0 0 0 0 0 0 0 0 0 0 0 0 0 0 0 0 0 0 0 0 0 0 0 0 0 0 0 0
0 0 0 0 0 0 0 0 0 0 0 0 0 0 0 0 0 0 0 0 0 0 0 0 0 0 0 0 0 0 0 0 0 0
0 0 0 0 0 0 0 0 0 0 0 0 0 0 0 0 0 0 0 0 0 0 0 0 0 0 0 0 0 0 0 0 0 0
0 0 0 0 0 0 0 0 0 0 0 0 0 0 0 0 0 0 0 0 0 0 0 0 0 0 0 0 0 0 0 0 0 0
0 0 0 0 0 0 0 0 0 0 0 0 0 0 0 0 0 0 0 0 0 0 0 0 0 0 0 0 0 0 0 0 0 0
0 0 0 0 0 0 0 0 0 0 0 0 0 0 0 0 0 0 0 0 0 0 0 0 0 0 0 0 0 0 0 0 0 0
0 0 0 0 0 0 0 0 0 0 0 0 0 0 0 0 0 0 0 0 0 0 0 0 0 0 0 0 0 0 0 0 0 0
0 0 0 0 0 0 0 0 0 0 0 0 0 0 0 0 0 0 0 0 0 0 0 0 0 0 0 0 0 0 0 0 0 0
0 0 0 0 0 0 0 0 0 0 0 0 0 0 0 0 0 0 0 0 0 0 0 0 0 0 0 0 0 0 0 0 0 0
0 0 0 0 0 0 0 0 0 0 0 0 0 0 0 0 0 0 0 0 0 0 0 0 0 0 0 0 0 0 0 0 0 0
0 0 0 0 0 0 0 0 0 0 0 0 0 0 0 0 0 0 0 0 0 0 0 0 0 0 0 0 0 0 0 0 0 0
0 0 0 0 0 0 0 0 0 0 0 0 0 0 0 0 0 0 0 0 0 0 0 0 0 0 0 0 0 0 0 0 0 0
0 0 0 0 0 0 0 0 0 0 0 0 0 0 0 0 0 0 0 0 0 0 0 0 0 0 0 0 0 0 0 0 0 0
0 0 0 0 0 0 0 0 0 0 0 0 0 0 0 0 0;
#X coords 0 1 999 -1 625 355 1;
#X restore 570 190 graph;
#X obj 1130 59 tgl 15 0 empty empty empty 17 7 0 10 #fcfcfc #000000
#000000 1 1;
#X obj 1130 109 s writeArray;
#X obj 1130 80 metro 100;
#X obj 1130 35 loadbang;
#X obj 30 190 cnv 15 468 331 empty empty empty 20 12 0 14 #dddddd #404040
0;
#X obj 50 210 catch~ \$0-Sound-Out;
#X obj 225 490 dac~;
#X obj 370 380 r writeArray;
#X obj 370 440 tabwrite~ \$0-a;
#X obj 340 410 clip~ -1 1;
#X obj 271 490 s~ record;
#X obj 350 490 s~ \$0-master-output;
#X obj 290 721 spigot;
#X obj 329 697 tgl 15 0 empty empty empty 17 7 0 10 #fcfcfc #000000
#000000 0 1;
#X obj 290 761 i;
#X obj 290 790 % 6;
#X obj 330 761 + 1;
#X obj 290 830 sel 0 1 2 3 4;
#X obj 390 761 random 5;
#X obj 390 721 spigot;
#X obj 429 697 tgl 15 0 empty empty empty 17 7 0 10 #fcfcfc #000000
#000000 0 1;
#X obj 290 859 bng 15 250 50 0 empty empty empty 17 7 0 10 #fcfcfc
#000000 #000000;
#X obj 308 859 bng 15 250 50 0 empty empty empty 17 7 0 10 #fcfcfc
#000000 #000000;
#X obj 326 859 bng 15 250 50 0 empty empty empty 17 7 0 10 #fcfcfc
#000000 #000000;
#X obj 344 859 bng 15 250 50 0 empty empty empty 17 7 0 10 #fcfcfc
#000000 #000000;
#X obj 362 859 bng 15 250 50 0 empty empty empty 17 7 0 10 #fcfcfc
#000000 #000000;
#X obj 380 859 bng 15 250 50 0 empty empty empty 17 7 0 10 #fcfcfc
#000000 #000000;
#X obj 500 721 spigot;
#X obj 539 697 tgl 15 0 empty empty empty 17 7 0 10 #fcfcfc #000000
#000000 0 1;
#X obj 500 761 i;
#X obj 540 761 + 1;
#X obj 500 830 sel 0 1 2 3 4;
#X obj 600 761 random 5;
#X obj 600 721 spigot;
#X obj 639 697 tgl 15 0 empty empty empty 17 7 0 10 #fcfcfc #000000
#000000 0 1;
#X obj 500 859 bng 15 250 50 0 empty empty empty 17 7 0 10 #fcfcfc
#000000 #000000;
#X obj 518 859 bng 15 250 50 0 empty empty empty 17 7 0 10 #fcfcfc
#000000 #000000;
#X obj 536 859 bng 15 250 50 0 empty empty empty 17 7 0 10 #fcfcfc
#000000 #000000;
#X obj 554 859 bng 15 250 50 0 empty empty empty 17 7 0 10 #fcfcfc
#000000 #000000;
#X obj 572 859 bng 15 250 50 0 empty empty empty 17 7 0 10 #fcfcfc
#000000 #000000;
#X obj 590 859 bng 15 250 50 0 empty empty empty 17 7 0 10 #fcfcfc
#000000 #000000;
#X obj 500 790 % 12;
#X obj 700 721 spigot;
#X obj 739 697 tgl 15 0 empty empty empty 17 7 0 10 #fcfcfc #000000
#000000 0 1;
#X obj 700 761 i;
#X obj 740 761 + 1;
#X obj 700 830 sel 0 1 2 3 4;
#X obj 800 761 random 5;
#X obj 800 721 spigot;
#X obj 839 697 tgl 15 0 empty empty empty 17 7 0 10 #fcfcfc #000000
#000000 0 1;
#X obj 700 859 bng 15 250 50 0 empty empty empty 17 7 0 10 #fcfcfc
#000000 #000000;
#X obj 718 859 bng 15 250 50 0 empty empty empty 17 7 0 10 #fcfcfc
#000000 #000000;
#X obj 736 859 bng 15 250 50 0 empty empty empty 17 7 0 10 #fcfcfc
#000000 #000000;
#X obj 754 859 bng 15 250 50 0 empty empty empty 17 7 0 10 #fcfcfc
#000000 #000000;
#X obj 772 859 bng 15 250 50 0 empty empty empty 17 7 0 10 #fcfcfc
#000000 #000000;
#X obj 790 859 bng 15 250 50 0 empty empty empty 17 7 0 10 #fcfcfc
#000000 #000000;
#X obj 700 791 % 6;
#X text 9 96 Last Revised: February 4 \, 2023, f 82;
#X text 9 6 February 4 \, 2023, f 82;
#X obj 80 890 phasor-bang-vline~ 242 100;
#X obj 80 920 phasor-bang-vline~ 122 100;
#X obj 290 921 phasor-bang-vline~ 260 120;
#X obj 290 891 phasor-bang-vline~ 300 120;
#X obj 290 951 phasor-bang-vline~ 120 120;
#X obj 500 951 phasor-bang-vline~ 434 90;
#X obj 500 921 phasor-bang-vline~ 400 90;
#X obj 500 891 phasor-bang-vline~ 323 90;
#X obj 340 320 bp~ 5000 10;
#X obj 50 250 myfreeverb~;
#X obj 700 891 phasor-bang-vline~ 200 130;
#X obj 700 923 phasor-bang-vline~ 360 130;
#X obj 700 954 phasor-bang-vline~ 320 130;
#X msg 700 58 open -bytes 4 February_4_2023.wav \, start;
#X obj 340 350 *~ 2;
#X obj 80 1040 throw~ \$0-Sound-Out;
#X text 10 50 Using Purr Data Version 2.17.0, f 82;
#X connect 7 0 20 0;
#X connect 8 0 10 0;
#X connect 9 0 8 1;
#X connect 10 0 11 0;
#X connect 10 0 12 0;
#X connect 11 0 13 0;
#X connect 12 0 10 1;
#X connect 13 0 22 0;
#X connect 13 1 23 0;
#X connect 13 2 24 0;
#X connect 13 3 25 0;
#X connect 13 4 26 0;
#X connect 13 5 27 0;
#X connect 14 0 13 0;
#X connect 15 0 14 0;
#X connect 16 0 15 1;
#X connect 17 0 20 1;
#X connect 18 0 20 1;
#X connect 19 0 20 1;
#X connect 20 0 8 0;
#X connect 20 0 15 0;
#X connect 20 0 52 0;
#X connect 20 0 59 0;
#X connect 20 0 67 0;
#X connect 20 0 73 0;
#X connect 20 0 82 0;
#X connect 20 0 88 0;
#X connect 21 0 7 0;
#X connect 23 0 99 0;
#X connect 24 0 100 0;
#X connect 26 0 99 0;
#X connect 27 0 99 0;
#X connect 30 0 34 0;
#X connect 31 0 34 0;
#X connect 31 0 34 1;
#X connect 32 0 30 0;
#X connect 33 0 112 0;
#X connect 35 0 37 0;
#X connect 37 0 38 0;
#X connect 37 0 38 1;
#X connect 37 0 36 0;
#X connect 40 0 42 0;
#X connect 42 0 41 0;
#X connect 43 0 40 0;
#X connect 45 0 108 0;
#X connect 47 0 48 0;
#X connect 49 0 48 0;
#X connect 49 0 46 0;
#X connect 49 0 46 1;
#X connect 49 0 50 0;
#X connect 49 0 51 0;
#X connect 52 0 54 0;
#X connect 53 0 52 1;
#X connect 54 0 55 0;
#X connect 54 0 56 0;
#X connect 55 0 57 0;
#X connect 56 0 54 1;
#X connect 57 0 61 0;
#X connect 57 1 62 0;
#X connect 57 2 63 0;
#X connect 57 3 64 0;
#X connect 57 4 65 0;
#X connect 57 5 66 0;
#X connect 58 0 57 0;
#X connect 59 0 58 0;
#X connect 60 0 59 1;
#X connect 61 0 102 0;
#X connect 62 0 103 0;
#X connect 63 0 101 0;
#X connect 65 0 103 0;
#X connect 66 0 102 0;
#X connect 67 0 69 0;
#X connect 68 0 67 1;
#X connect 69 0 70 0;
#X connect 69 0 81 0;
#X connect 70 0 69 1;
#X connect 71 0 75 0;
#X connect 71 1 76 0;
#X connect 71 2 77 0;
#X connect 71 3 78 0;
#X connect 71 4 79 0;
#X connect 71 5 80 0;
#X connect 72 0 71 0;
#X connect 73 0 72 0;
#X connect 74 0 73 1;
#X connect 75 0 105 0;
#X connect 77 0 105 0;
#X connect 78 0 106 0;
#X connect 79 0 106 0;
#X connect 80 0 104 0;
#X connect 81 0 71 0;
#X connect 82 0 84 0;
#X connect 83 0 82 1;
#X connect 84 0 85 0;
#X connect 84 0 96 0;
#X connect 85 0 84 1;
#X connect 86 0 90 0;
#X connect 86 1 91 0;
#X connect 86 2 92 0;
#X connect 86 3 93 0;
#X connect 86 4 94 0;
#X connect 86 5 95 0;
#X connect 87 0 86 0;
#X connect 88 0 87 0;
#X connect 89 0 88 1;
#X connect 90 0 109 0;
#X connect 91 0 111 0;
#X connect 92 0 110 0;
#X connect 94 0 111 0;
#X connect 95 0 109 0;
#X connect 96 0 86 0;
#X connect 99 0 114 0;
#X connect 100 0 114 0;
#X connect 101 0 114 0;
#X connect 102 0 114 0;
#X connect 103 0 114 0;
#X connect 104 0 114 0;
#X connect 105 0 114 0;
#X connect 106 0 114 0;
#X connect 107 0 113 0;
#X connect 108 0 107 0;
#X connect 108 1 107 0;
#X connect 109 0 114 0;
#X connect 110 0 114 0;
#X connect 111 0 114 0;
#X connect 112 0 34 0;
#X connect 113 0 49 0;
