#N canvas 5112 -8 1904 996 10;
#X obj 301 671 dac~;
#X obj 60 141 tgl 15 0 empty empty empty 17 7 0 10 -262144 -1 -1 0
1;
#X obj 60 205 f;
#X obj 89 205 + 1;
#X obj 60 313 mtof;
#X obj 71 429 *~;
#X obj 61 392 osc~;
#X obj 96 391 osc~;
#X obj 132 391 osc~;
#X obj 75 478 *~;
#X obj 61 363 * 3;
#X obj 96 363 * 4;
#X obj 132 363 * 5;
#X obj 75 559 *~ 0.2;
#X obj 60 281 expr 20+($i1|($i1^3))%8%3*3;
#X obj 60 167 metro 400;
#X obj 75 521 spigot~;
#X obj 114 498 tgl 15 0 empty empty empty 17 7 0 10 -262144 -1 -1 1
1;
#X obj 1 -48 cnv 15 603 60 empty empty Don't\ Know 20 12 0 18 -233017
-66577 0;
#X text 19 -21 by 8v01d (infinite void), f 82;
#X obj 1 -1 cnv 15 603 25 empty empty empty 20 12 0 14 -191407 -66577
0;
#X obj 1 22 cnv 15 603 25 empty empty empty 20 12 0 14 -128992 -66577
0;
#X obj 1 45 cnv 15 603 25 empty empty empty 20 12 0 14 -99865 -262144
0;
#X text 19 24 Contact: thisis8v01d@gmail.com, f 82;
#X text 19 1 Using Purr Data 2.11.0, f 82;
#X obj 272 316 mtof;
#X obj 283 432 *~;
#X obj 273 395 osc~;
#X obj 308 394 osc~;
#X obj 344 394 osc~;
#X obj 287 481 *~;
#X obj 287 524 spigot~;
#X obj 326 501 tgl 15 0 empty empty empty 17 7 0 10 -262144 -1 -1 1
1;
#X obj 272 283 expr 16+($i1|($i1^100))%3;
#X obj 287 562 *~ 0.15;
#X obj 451 317 mtof;
#X obj 462 433 *~;
#X obj 452 396 osc~;
#X obj 487 395 osc~;
#X obj 523 395 osc~;
#X obj 466 482 *~;
#X obj 452 367 * 3;
#X obj 466 525 spigot~;
#X obj 505 502 tgl 15 0 empty empty empty 17 7 0 10 -262144 -1 -1 1
1;
#X obj 466 563 *~ 0.15;
#X obj 451 284 expr 18+($i1|($i1^10))%8;
#X obj 487 367 * 2;
#X obj 523 367 * 6;
#X obj 273 366 * 1;
#X obj 308 365 * 3;
#X obj 344 366 * 4;
#X text 19 47 Last Revised: August 24 \, 2021, f 82;
#X msg 429 702 stop;
#X obj 429 648 bng 20 250 50 0 empty empty empty 17 7 0 10 -258699
-1 -1;
#X obj 399 648 bng 20 250 50 0 empty empty empty 17 7 0 10 -24198 -1
-1;
#X obj 399 725 writesf~ 2;
#X msg 399 678 open -bytes 4 Don't_Know.wav \, start;
#X connect 1 0 15 0;
#X connect 2 0 3 0;
#X connect 2 0 14 0;
#X connect 2 0 33 0;
#X connect 2 0 45 0;
#X connect 3 0 2 1;
#X connect 4 0 10 0;
#X connect 4 0 11 0;
#X connect 4 0 12 0;
#X connect 5 0 9 0;
#X connect 6 0 5 0;
#X connect 7 0 5 1;
#X connect 8 0 9 1;
#X connect 9 0 16 0;
#X connect 10 0 6 0;
#X connect 11 0 7 0;
#X connect 12 0 8 0;
#X connect 13 0 0 0;
#X connect 13 0 0 1;
#X connect 13 0 55 0;
#X connect 13 0 55 1;
#X connect 14 0 4 0;
#X connect 15 0 2 0;
#X connect 16 0 13 0;
#X connect 17 0 16 1;
#X connect 25 0 48 0;
#X connect 25 0 49 0;
#X connect 25 0 50 0;
#X connect 26 0 30 0;
#X connect 27 0 26 0;
#X connect 28 0 26 1;
#X connect 29 0 30 1;
#X connect 30 0 31 0;
#X connect 31 0 34 0;
#X connect 32 0 31 1;
#X connect 33 0 25 0;
#X connect 34 0 0 0;
#X connect 34 0 0 1;
#X connect 34 0 55 0;
#X connect 34 0 55 1;
#X connect 35 0 41 0;
#X connect 35 0 46 0;
#X connect 35 0 47 0;
#X connect 36 0 40 0;
#X connect 37 0 36 0;
#X connect 38 0 36 1;
#X connect 39 0 40 1;
#X connect 40 0 42 0;
#X connect 41 0 37 0;
#X connect 42 0 44 0;
#X connect 43 0 42 1;
#X connect 44 0 0 0;
#X connect 44 0 0 1;
#X connect 44 0 55 0;
#X connect 44 0 55 1;
#X connect 45 0 35 0;
#X connect 46 0 38 0;
#X connect 47 0 39 0;
#X connect 48 0 27 0;
#X connect 49 0 28 0;
#X connect 50 0 29 0;
#X connect 52 0 55 0;
#X connect 53 0 52 0;
#X connect 54 0 56 0;
#X connect 56 0 55 0;
