#N canvas 674 25 659 445 12;
#X obj 426 320 freeverb~;
#X obj 151 170 hsl 128 15 0 1 0 0 empty empty Wet 140 4 0 10 -262144
-1 -1 597 1;
#X msg 485 135 wet \$1;
#X obj 151 191 hsl 128 15 0 1 0 0 empty empty Dry 140 4 0 10 -262144
-1 -1 2197 1;
#X obj 151 213 hsl 128 15 0 1 0 0 empty empty Roomsize 140 4 0 10 -262144
-1 -1 11392 1;
#X msg 485 159 dry \$1;
#X msg 485 183 roomsize \$1;
#X floatatom 541 135 5 0 0 0 - - -, f 5;
#X floatatom 541 160 5 0 0 0 - - -, f 5;
#X floatatom 576 184 5 0 0 0 - - -, f 5;
#X obj 62 68 bng 15 250 50 0 empty empty empty 17 7 0 10 -262144 -1
-1;
#X obj 62 46 loadbang;
#X obj 393 285 inlet~;
#X obj 394 359 outlet~;
#X obj 469 359 outlet~;
#X obj 151 322 bng 15 250 50 0 empty empty Reset 17 7 0 10 -262144
-1 -1;
#X msg 93 87 0.047;
#X msg 93 111 0.173;
#X msg 94 135 0.897;
#X obj 147 145 cnv 5 15 5 empty empty empty 20 12 0 14 -4032 -66577
0;
#X obj 147 340 cnv 5 15 5 empty empty empty 20 12 0 14 -4032 -66577
0;
#X text 151 150 myfreeverb~;
#X obj 329 340 cnv 5 15 5 empty empty empty 20 12 0 14 -4032 -66577
0;
#X obj 151 236 hsl 128 15 0 0.5 0 0 empty empty Damping 140 4 0 10
-262144 -1 -1 0 1;
#X obj 151 260 hsl 128 15 0 1 0 0 empty empty Width 140 4 0 10 -262144
-1 -1 12700 1;
#X floatatom 570 208 5 0 0 0 - - -, f 5;
#X floatatom 557 233 5 0 0 0 - - -, f 5;
#X msg 486 208 damping \$1;
#X msg 486 232 width \$1;
#X msg 94 185 1;
#X obj 151 282 tgl 15 0 empty empty Freeze 17 7 0 10 -262144 -1 -1
0 1;
#X obj 151 302 tgl 15 0 empty empty Bypass 17 7 0 10 -262144 -1 -1
0 1;
#X floatatom 557 258 5 0 0 0 - - -, f 5;
#X floatatom 557 282 5 0 0 0 - - -, f 5;
#X msg 94 210 0;
#X msg 94 235 0;
#X msg 486 257 freeze \$1;
#X msg 486 281 bypass \$1;
#X obj 545 359 print;
#X msg 94 160 0;
#X connect 0 0 13 0;
#X connect 0 1 14 0;
#X connect 1 0 2 0;
#X connect 1 0 7 0;
#X connect 2 0 0 0;
#X connect 2 0 38 0;
#X connect 3 0 5 0;
#X connect 3 0 8 0;
#X connect 4 0 9 0;
#X connect 4 0 6 0;
#X connect 5 0 0 0;
#X connect 5 0 38 0;
#X connect 6 0 0 0;
#X connect 6 0 38 0;
#X connect 10 0 16 0;
#X connect 10 0 17 0;
#X connect 10 0 18 0;
#X connect 10 0 39 0;
#X connect 10 0 29 0;
#X connect 10 0 34 0;
#X connect 10 0 35 0;
#X connect 11 0 10 0;
#X connect 12 0 0 0;
#X connect 15 0 16 0;
#X connect 15 0 17 0;
#X connect 15 0 18 0;
#X connect 15 0 39 0;
#X connect 15 0 29 0;
#X connect 15 0 34 0;
#X connect 15 0 35 0;
#X connect 16 0 1 0;
#X connect 17 0 3 0;
#X connect 18 0 4 0;
#X connect 23 0 27 0;
#X connect 23 0 25 0;
#X connect 24 0 28 0;
#X connect 24 0 26 0;
#X connect 27 0 0 0;
#X connect 27 0 38 0;
#X connect 28 0 0 0;
#X connect 28 0 38 0;
#X connect 29 0 24 0;
#X connect 30 0 36 0;
#X connect 30 0 32 0;
#X connect 31 0 37 0;
#X connect 31 0 33 0;
#X connect 34 0 30 0;
#X connect 35 0 31 0;
#X connect 36 0 0 0;
#X connect 36 0 38 0;
#X connect 37 0 0 0;
#X connect 37 0 38 0;
#X connect 39 0 23 0;
#X coords 0 -1 1 1 198 203 2 146 144;
