#N canvas 1272 0 2544 1309 10;
#X obj 1 1 cnv 15 603 62 empty empty empty 20 12 0 14 -233017 -66577
0;
#X obj 1 49 cnv 15 603 25 empty empty empty 20 12 0 14 -191407 -66577
0;
#X text 11 29 by 8v01d (infinite void), f 82;
#X obj 1 72 cnv 15 603 25 empty empty empty 20 12 0 14 -128992 -66577
0;
#X obj 1 95 cnv 15 603 25 empty empty empty 20 12 0 14 -99865 -262144
0;
#X text 11 74 Contact: thisis8v01d@gmail.com, f 82;
#X text 11 51 Using Purr-data Version 2.11.0, f 82;
#X obj 438 264 metro 250;
#X obj 438 232 tgl 15 0 empty empty empty 17 7 0 10 -262144 -1 -1 1
1;
#X obj 438 413 random 3;
#X obj 438 438 sel 0 1 2 3;
#X obj 438 465 bng 15 250 50 0 empty empty empty 17 7 0 10 -262144
-1 -1;
#X obj 459 466 bng 15 250 50 0 empty empty empty 17 7 0 10 -262144
-1 -1;
#X obj 480 466 bng 15 250 50 0 empty empty empty 17 7 0 10 -262144
-1 -1;
#X obj 438 376 spigot;
#X obj 471 350 tgl 15 0 empty empty empty 17 7 0 10 -262144 -1 -1 0
1;
#X obj 439 559 *~;
#X obj 488 534 vline~;
#X obj 439 507 noise~;
#X obj 438 202 loadbang;
#X msg 489 233 250;
#X msg 522 233 200;
#X msg 554 233 150;
#X obj 693 318 spigot;
#X obj 726 292 tgl 15 0 empty empty empty 17 7 0 10 -262144 -1 -1 0
1;
#X obj 693 343 f;
#X obj 724 342 + 1;
#X obj 693 368 mod 4;
#X obj 692 401 sel 0 1 2 3;
#X obj 692 428 bng 15 250 50 0 empty empty empty 17 7 0 10 -262144
-1 -1;
#X obj 713 429 bng 15 250 50 0 empty empty empty 17 7 0 10 -262144
-1 -1;
#X obj 734 429 bng 15 250 50 0 empty empty empty 17 7 0 10 -262144
-1 -1;
#X obj 691 517 mtof;
#X obj 691 542 osc~;
#X obj 691 622 *~;
#X obj 691 457 loadbang;
#X obj 706 597 vline~;
#X obj 818 517 mtof;
#X obj 818 542 osc~;
#X obj 818 622 *~;
#X obj 818 457 loadbang;
#X obj 833 597 vline~;
#X obj 948 520 mtof;
#X obj 948 545 osc~;
#X obj 948 625 *~;
#X obj 948 460 loadbang;
#X obj 963 600 vline~;
#X msg 691 492 30;
#X msg 818 491 46;
#X msg 948 495 52;
#X msg 963 575 1 5 \, 0 90 5;
#X msg 833 572 1 5 \, 0 90 5;
#X msg 706 572 1 5 \, 0 90 5;
#X obj 1072 322 random 3;
#X obj 1072 347 sel 0 1 2 3;
#X obj 1072 374 bng 15 250 50 0 empty empty empty 17 7 0 10 -262144
-1 -1;
#X obj 1093 375 bng 15 250 50 0 empty empty empty 17 7 0 10 -262144
-1 -1;
#X obj 1114 375 bng 15 250 50 0 empty empty empty 17 7 0 10 -262144
-1 -1;
#X obj 1057 487 *~;
#X obj 1072 462 vline~;
#X obj 1189 487 *~;
#X obj 1204 462 vline~;
#X obj 1320 490 *~;
#X obj 1335 466 vline~;
#X obj 1158 258 spigot;
#X obj 1191 232 tgl 15 0 empty empty empty 17 7 0 10 -262144 -1 -1
0 1;
#X obj 592 266 metro 500;
#X msg 643 241 500;
#X msg 674 241 1000;
#X obj 1158 286 f;
#X obj 1189 285 + 1;
#X obj 1158 311 mod 4;
#X obj 1189 405 osc~ 380;
#X obj 1320 408 osc~ 300;
#X obj 1057 404 osc~ 200;
#X obj 1072 294 spigot;
#X obj 1105 268 tgl 15 0 empty empty empty 17 7 0 10 -262144 -1 -1
0 1;
#X obj 602 997 *~;
#X obj 617 972 vline~;
#X obj 876 880 random 3;
#X obj 876 905 sel 0 1 2 3;
#X obj 876 932 bng 15 250 50 0 empty empty empty 17 7 0 10 -262144
-1 -1;
#X obj 897 933 bng 15 250 50 0 empty empty empty 17 7 0 10 -262144
-1 -1;
#X obj 918 933 bng 15 250 50 0 empty empty empty 17 7 0 10 -262144
-1 -1;
#X obj 872 1057 *~;
#X obj 887 1032 vline~;
#X obj 1006 1057 *~;
#X obj 1021 1032 vline~;
#X obj 1137 1060 *~;
#X obj 1152 1036 vline~;
#X obj 962 816 spigot;
#X obj 995 790 tgl 15 0 empty empty empty 17 7 0 10 -262144 -1 -1 0
1;
#X obj 962 844 f;
#X obj 993 843 + 1;
#X obj 962 869 mod 4;
#X obj 876 852 spigot;
#X obj 909 826 tgl 15 0 empty empty empty 17 7 0 10 -262144 -1 -1 0
1;
#X obj 872 974 phasor~ 200;
#X obj 1006 975 phasor~ 380;
#X obj 1137 978 phasor~ 300;
#X msg 886 1007 0.5 5 \, 0 300 5;
#X msg 1021 1006 0.5 5 \, 0 300 5;
#X msg 1152 1010 0.5 5 \, 0 300 5;
#X obj 569 795 random 3;
#X obj 569 820 sel 0 1 2 3;
#X obj 569 847 bng 15 250 50 0 empty empty empty 17 7 0 10 -262144
-1 -1;
#X obj 590 848 bng 15 250 50 0 empty empty empty 17 7 0 10 -262144
-1 -1;
#X obj 611 848 bng 15 250 50 0 empty empty empty 17 7 0 10 -262144
-1 -1;
#X obj 569 758 spigot;
#X obj 602 732 tgl 15 0 empty empty empty 17 7 0 10 -262144 -1 -1 0
1;
#X obj 569 925 /~ 2;
#X obj 569 881 phasor~ 100;
#X obj 448 986 *~;
#X obj 463 961 vline~;
#X obj 415 914 /~ 2;
#X obj 751 991 *~;
#X obj 766 966 vline~;
#X obj 718 919 /~ 2;
#X obj 415 870 phasor~ 200;
#X obj 718 875 phasor~ 300;
#X msg 1072 437 0.2 5 \, 0 1000 5;
#X msg 1204 436 0.2 5 \, 0 1000 5;
#X msg 1335 439 0.2 5 \, 0 1000 5;
#X obj 1426 662 cnv 15 433 149 empty empty empty 20 12 0 14 -261234
-66577 0;
#X msg 1531 733 stop;
#X obj 1444 752 r~ record;
#X obj 1531 685 bng 20 250 50 0 empty empty empty 17 7 0 10 -258699
-1 -1;
#X obj 1506 685 bng 20 250 50 0 empty empty empty 17 7 0 10 -24198
-1 -1;
#X obj 1506 752 writesf~ 2;
#X obj 1178 720 s~ \$0-master-output;
#X obj 1205 782 r~ \$0-master-output;
#X obj 1237 831 s~ record;
#X obj 1205 807 *~ 1;
#X obj 1205 832 dac~;
#X msg 463 934 0.5 5 \, 0 90 300;
#X msg 617 944 0.5 5 \, 0 90 300;
#X msg 766 938 0.5 5 \, 0 90 300;
#X msg 488 507 0.8 5 \, 0 400 5;
#X text 12 7 Jamuary 14 2022, f 82;
#X msg 1506 713 open -bytes 4 Jamuary_14_2022.wav \, start;
#X text 11 96 Last Revised: January 14 \, 2022, f 82;
#X connect 7 0 14 0;
#X connect 7 0 23 0;
#X connect 7 0 66 0;
#X connect 7 0 95 0;
#X connect 7 0 90 0;
#X connect 7 0 108 0;
#X connect 8 0 7 0;
#X connect 9 0 10 0;
#X connect 10 0 11 0;
#X connect 10 1 12 0;
#X connect 10 2 13 0;
#X connect 11 0 137 0;
#X connect 14 0 9 0;
#X connect 15 0 14 1;
#X connect 16 0 129 0;
#X connect 17 0 16 1;
#X connect 18 0 16 0;
#X connect 19 0 8 0;
#X connect 20 0 7 1;
#X connect 21 0 7 1;
#X connect 22 0 7 1;
#X connect 23 0 25 0;
#X connect 24 0 23 1;
#X connect 25 0 26 0;
#X connect 25 0 27 0;
#X connect 26 0 25 1;
#X connect 27 0 28 0;
#X connect 28 0 29 0;
#X connect 28 1 30 0;
#X connect 28 2 31 0;
#X connect 29 0 52 0;
#X connect 30 0 51 0;
#X connect 31 0 50 0;
#X connect 32 0 33 0;
#X connect 33 0 34 0;
#X connect 34 0 129 0;
#X connect 35 0 47 0;
#X connect 36 0 34 1;
#X connect 37 0 38 0;
#X connect 38 0 39 0;
#X connect 39 0 129 0;
#X connect 40 0 48 0;
#X connect 41 0 39 1;
#X connect 42 0 43 0;
#X connect 43 0 44 0;
#X connect 44 0 129 0;
#X connect 45 0 49 0;
#X connect 46 0 44 1;
#X connect 47 0 32 0;
#X connect 48 0 37 0;
#X connect 49 0 42 0;
#X connect 50 0 46 0;
#X connect 51 0 41 0;
#X connect 52 0 36 0;
#X connect 53 0 54 0;
#X connect 54 0 55 0;
#X connect 54 1 56 0;
#X connect 54 2 57 0;
#X connect 55 0 120 0;
#X connect 56 0 121 0;
#X connect 57 0 122 0;
#X connect 58 0 129 0;
#X connect 59 0 58 1;
#X connect 60 0 129 0;
#X connect 61 0 60 1;
#X connect 62 0 129 0;
#X connect 63 0 62 1;
#X connect 64 0 69 0;
#X connect 65 0 64 1;
#X connect 66 0 64 0;
#X connect 66 0 75 0;
#X connect 67 0 66 1;
#X connect 68 0 66 1;
#X connect 69 0 70 0;
#X connect 69 0 71 0;
#X connect 70 0 69 1;
#X connect 71 0 54 0;
#X connect 72 0 60 0;
#X connect 73 0 62 0;
#X connect 74 0 58 0;
#X connect 75 0 53 0;
#X connect 76 0 75 1;
#X connect 77 0 129 0;
#X connect 78 0 77 1;
#X connect 79 0 80 0;
#X connect 80 0 81 0;
#X connect 80 1 82 0;
#X connect 80 2 83 0;
#X connect 81 0 100 0;
#X connect 82 0 101 0;
#X connect 83 0 102 0;
#X connect 84 0 129 0;
#X connect 85 0 84 1;
#X connect 86 0 129 0;
#X connect 87 0 86 1;
#X connect 88 0 129 0;
#X connect 89 0 88 1;
#X connect 90 0 92 0;
#X connect 91 0 90 1;
#X connect 92 0 93 0;
#X connect 92 0 94 0;
#X connect 93 0 92 1;
#X connect 94 0 80 0;
#X connect 95 0 79 0;
#X connect 96 0 95 1;
#X connect 97 0 84 0;
#X connect 98 0 86 0;
#X connect 99 0 88 0;
#X connect 100 0 85 0;
#X connect 101 0 87 0;
#X connect 102 0 89 0;
#X connect 103 0 104 0;
#X connect 104 0 105 0;
#X connect 104 1 106 0;
#X connect 104 2 107 0;
#X connect 105 0 134 0;
#X connect 106 0 135 0;
#X connect 107 0 136 0;
#X connect 108 0 103 0;
#X connect 109 0 108 1;
#X connect 110 0 77 0;
#X connect 111 0 110 0;
#X connect 112 0 129 0;
#X connect 113 0 112 1;
#X connect 114 0 112 0;
#X connect 115 0 129 0;
#X connect 116 0 115 1;
#X connect 117 0 115 0;
#X connect 118 0 114 0;
#X connect 119 0 117 0;
#X connect 120 0 59 0;
#X connect 121 0 61 0;
#X connect 122 0 63 0;
#X connect 124 0 128 0;
#X connect 125 0 128 0;
#X connect 125 0 128 1;
#X connect 126 0 124 0;
#X connect 127 0 139 0;
#X connect 130 0 132 0;
#X connect 132 0 133 0;
#X connect 132 0 133 1;
#X connect 132 0 131 0;
#X connect 134 0 113 0;
#X connect 135 0 78 0;
#X connect 136 0 116 0;
#X connect 137 0 17 0;
#X connect 139 0 128 0;
