#N canvas -8 -8 1920 976 12;
#X obj 159 312 *~;
#X obj 71 129 * 100;
#X obj 71 63 metro 100;
#X obj 71 35 tgl 15 0 empty empty empty 17 7 0 10 -262144 -1 -1 1 1
;
#X obj 159 345 *~ 1;
#X obj 159 378 hip~ 5;
#X obj 265 259 /~;
#X obj 71 162 mtof;
#X obj 71 195 osc~ 200;
#X obj 71 96 random 5;
#X obj 211 225 phasor~ 700;
#X obj 309 225 phasor~ 4;
#X msg 309 128 1;
#X msg 346 128 3;
#X msg 378 128 4;
#X msg 410 128 6;
#X msg 445 128 8;
#X msg 480 128 10;
#X obj 160 442 dac~;
#X obj 268 342 del 250;
#X obj 355 411 writesf~;
#X msg 268 372 start;
#X msg 314 372 stop;
#X obj 284 411 r~ record;
#X obj 320 311 bng 20 250 50 0 empty empty empty 17 7 0 10 -258699
-1 -1;
#X obj 268 310 bng 20 250 50 0 startup empty empty 17 7 0 10 -24198
-1 -1;
#X obj 198 442 s~ record;
#X msg 354 372 open Album_1_-_Random_OSC_Rythmic.wav;
#N canvas 0 22 450 278 (subpatch) 0;
#X array array1 64 float 5;
#A 0 -1 -1 -1 -1 -1 -0.504274 -1 -1 -1 -1 -1 -1 -1 -1 -1 -1 -1 1 -1
1 -1 1 -1 -0.246567 -1 -1 -1 -1 0.935281 -1 1 -1 1 -1 1 -0.883335 -1
-1 1 1 -1 -1 0.522774 1 -1 -1 -1 1 -0.740243 -1 -1 1 1 -1 -1 -1 -1
-1 -1 -1 -1 -1 -1 -1;
#X coords 0 1 63 -1 400 240 1;
#X restore 178 -128 graph;
#X obj 40 418 bang~;
#X obj 40 442 tabwrite~ array1;
#X obj 159 411 clip~ -1 1;
#X connect 0 0 4 0;
#X connect 1 0 7 0;
#X connect 2 0 9 0;
#X connect 3 0 2 0;
#X connect 4 0 5 0;
#X connect 5 0 31 0;
#X connect 6 0 0 1;
#X connect 7 0 8 0;
#X connect 8 0 0 0;
#X connect 9 0 1 0;
#X connect 10 0 6 0;
#X connect 11 0 6 1;
#X connect 12 0 11 0;
#X connect 13 0 11 0;
#X connect 14 0 11 0;
#X connect 15 0 11 0;
#X connect 16 0 11 0;
#X connect 17 0 11 0;
#X connect 19 0 21 0;
#X connect 21 0 20 0;
#X connect 22 0 20 0;
#X connect 23 0 20 0;
#X connect 24 0 22 0;
#X connect 25 0 19 0;
#X connect 25 0 27 0;
#X connect 27 0 20 0;
#X connect 29 0 30 0;
#X connect 31 0 18 0;
#X connect 31 0 18 1;
#X connect 31 0 30 0;
#X connect 31 0 26 0;
