#N canvas 247 274 554 634 10;
#X obj 56 -184 tgl 15 0 empty empty empty 17 7 0 10 -262144 -1 -1 0
1;
#X obj 56 -10 tabread scale;
#X obj 56 12 + 60;
#X floatatom 56 34 5 0 0 0 - - -, f 5;
#X obj 56 55 mtof;
#X obj 56 99 *~ 0.1;
#X obj 56 121 dac~;
#N canvas 0 22 450 278 (subpatch) 0;
#X array sequence 4 float 3 black black;
#A 0 0 1 2 1;
#X coords 0 24 4 0 200 140 1;
#X restore 297 -99 graph;
#X obj 56 77 osc~ 440;
#X obj 299 59 table scale;
#X obj 56 -131 f;
#X floatatom 56 -87 5 0 0 0 - - -, f 5;
#X obj 56 -153 metro 200;
#X obj 83 -131 + 1;
#X obj 56 -66 tabread sequence;
#X obj 56 -42 i;
#X floatatom 106 24 5 0 0 0 - - -, f 5;
#X msg 296 142 \; scale 0 0 2 3;
#X obj 56 -109 % 4;
#X msg 296 -148 \; sequence 0 0 1 2;
#X msg 306 189 \; scale 2 6 4 2;
#X msg 315 239 \; scale 0 6 8 10;
#X msg 412 -148 \; sequence 0 4 1 6;
#X obj 296 109 loadbang;
#X obj 296 -175 loadbang;
#X obj 90 122 s~ record;
#X obj -49 98 bang~;
#X obj -49 121 tabwrite~ array1;
#X obj 7 348 del 250;
#X msg 7 378 start;
#X msg 53 378 stop;
#X obj 23 417 r~ record;
#X obj 59 317 bng 20 250 50 0 empty empty empty 17 7 0 10 -258699 -1
-1;
#X obj 7 316 bng 20 250 50 0 startup empty empty 17 7 0 10 -24198 -1
-1;
#N canvas 0 22 450 278 (subpatch) 0;
#X array array1 64 float 5 black black;
#A 0 0 0 0 0 0 0 0 0 0 0 0 0 0 0 0 0 0 0 0 0 0 0 0 0 0 0 0 0 0 0 0
0 0 0 0 0 0 0 0 0 0 0 0 0 0 0 0 0 0 0 0 0 0 0 0 0 0 0 0 0 0 0 0 0;
#X coords 0 1 63 -1 200 200 1;
#X restore 280 311 graph;
#X obj 94 417 writesf~ 2;
#X msg 93 378 open melody_short_arrays.wav;
#X connect 0 0 12 0;
#X connect 1 0 2 0;
#X connect 2 0 3 0;
#X connect 3 0 4 0;
#X connect 4 0 8 0;
#X connect 5 0 6 0;
#X connect 5 0 6 1;
#X connect 5 0 25 0;
#X connect 5 0 27 0;
#X connect 8 0 5 0;
#X connect 10 0 13 0;
#X connect 10 0 18 0;
#X connect 11 0 14 0;
#X connect 12 0 10 0;
#X connect 13 0 10 1;
#X connect 14 0 15 0;
#X connect 15 0 1 0;
#X connect 16 0 2 1;
#X connect 18 0 11 0;
#X connect 23 0 17 0;
#X connect 24 0 19 0;
#X connect 26 0 27 0;
#X connect 28 0 29 0;
#X connect 29 0 35 0;
#X connect 30 0 35 0;
#X connect 31 0 35 0;
#X connect 31 0 35 1;
#X connect 32 0 30 0;
#X connect 33 0 28 0;
#X connect 33 0 36 0;
#X connect 36 0 35 0;
