#N canvas -7 0 2544 1316 10;
#X obj 1 1 cnv 15 603 62 empty empty empty 20 12 0 14 -233017 -66577
0;
#X obj 1 49 cnv 15 603 25 empty empty empty 20 12 0 14 -191407 -66577
0;
#X text 11 29 by 8v01d (infinite void), f 82;
#X obj 1 72 cnv 15 603 25 empty empty empty 20 12 0 14 -128992 -66577
0;
#X obj 1 95 cnv 15 603 25 empty empty empty 20 12 0 14 -99865 -262144
0;
#X text 11 74 Contact: thisis8v01d@gmail.com, f 82;
#X text 11 51 Using Purr-data Version 2.11.0, f 82;
#X text 12 7 Live Stream 1, f 82;
#X text 11 96 Last Revised: January 1 \, 2021, f 82;
#X obj 438 264 metro 250;
#X obj 438 238 tgl 15 0 empty empty empty 17 7 0 10 -262144 -1 -1 1
1;
#X obj 1762 932 random 3;
#X obj 1762 957 sel 0 1 2 3;
#X obj 1762 984 bng 15 250 50 0 empty empty empty 17 7 0 10 -262144
-1 -1;
#X obj 1783 985 bng 15 250 50 0 empty empty empty 17 7 0 10 -262144
-1 -1;
#X obj 1804 985 bng 15 250 50 0 empty empty empty 17 7 0 10 -262144
-1 -1;
#X obj 1762 895 spigot;
#X obj 1795 869 tgl 15 0 empty empty empty 17 7 0 10 -262144 -1 -1
1 1;
#X obj 1792 1092 *~;
#X obj 1807 1067 vline~;
#X obj 1793 1136 dac~;
#X obj 1755 1013 noise~;
#X msg 1807 1040 1 5 \, 0 400 5;
#X obj 438 208 loadbang;
#X obj 373 818 random 3;
#X obj 373 843 sel 0 1 2 3;
#X obj 373 870 bng 15 250 50 0 empty empty empty 17 7 0 10 -262144
-1 -1;
#X obj 394 871 bng 15 250 50 0 empty empty empty 17 7 0 10 -262144
-1 -1;
#X obj 415 871 bng 15 250 50 0 empty empty empty 17 7 0 10 -262144
-1 -1;
#X obj 376 1019 mtof;
#X obj 376 1044 osc~;
#X obj 376 1188 *~;
#X obj 376 1213 dac~;
#X obj 376 959 loadbang;
#X obj 391 1163 vline~;
#X msg 391 1138 1 5 \, 0 300 5;
#X obj 490 1019 mtof;
#X obj 490 1044 osc~;
#X obj 490 1188 *~;
#X obj 490 1213 dac~;
#X obj 490 959 loadbang;
#X obj 505 1163 vline~;
#X msg 505 1138 1 5 \, 0 300 5;
#X obj 607 1022 mtof;
#X obj 607 1047 osc~;
#X obj 607 1191 *~;
#X obj 607 1216 dac~;
#X obj 607 962 loadbang;
#X obj 622 1166 vline~;
#X msg 622 1141 1 5 \, 0 300 5;
#X obj 373 781 spigot;
#X obj 406 755 tgl 15 0 empty empty empty 17 7 0 10 -262144 -1 -1 1
1;
#X floatatom 380 923 5 0 0 0 - - -, f 5;
#X floatatom 492 928 5 0 0 0 - - -, f 5;
#X floatatom 492 928 5 0 0 0 - - -, f 5;
#X floatatom 609 932 5 0 0 0 - - -, f 5;
#X msg 527 233 250;
#X msg 571 236 200;
#X msg 615 236 150;
#X msg 376 994 69;
#X msg 490 993 62;
#X msg 607 997 58;
#X obj 818 858 random 3;
#X obj 818 883 sel 0 1 2 3;
#X obj 818 910 bng 15 250 50 0 empty empty empty 17 7 0 10 -262144
-1 -1;
#X obj 841 912 bng 15 250 50 0 empty empty empty 17 7 0 10 -262144
-1 -1;
#X obj 860 911 bng 15 250 50 0 empty empty empty 17 7 0 10 -262144
-1 -1;
#X obj 821 1059 mtof;
#X obj 821 1084 osc~;
#X obj 821 1228 *~;
#X obj 821 1253 dac~;
#X obj 821 999 loadbang;
#X obj 836 1203 vline~;
#X obj 935 1059 mtof;
#X obj 935 1084 osc~;
#X obj 935 1228 *~;
#X obj 935 1253 dac~;
#X obj 935 999 loadbang;
#X obj 950 1203 vline~;
#X obj 1052 1062 mtof;
#X obj 1052 1087 osc~;
#X obj 1052 1231 *~;
#X obj 1052 1256 dac~;
#X obj 1052 1002 loadbang;
#X obj 1067 1206 vline~;
#X obj 818 821 spigot;
#X obj 851 795 tgl 15 0 empty empty empty 17 7 0 10 -262144 -1 -1 1
1;
#X floatatom 825 963 5 0 0 0 - - -, f 5;
#X floatatom 937 968 5 0 0 0 - - -, f 5;
#X floatatom 937 968 5 0 0 0 - - -, f 5;
#X floatatom 1054 972 5 0 0 0 - - -, f 5;
#X msg 1052 1037 58;
#X msg 836 1178 1 5 \, 0 100 5;
#X msg 950 1178 1 5 \, 0 100 5;
#X msg 1067 1181 1 5 \, 0 100 5;
#X obj 1208 882 random 3;
#X obj 1208 907 sel 0 1 2 3;
#X obj 1208 934 bng 15 250 50 0 empty empty empty 17 7 0 10 -262144
-1 -1;
#X obj 1229 935 bng 15 250 50 0 empty empty empty 17 7 0 10 -262144
-1 -1;
#X obj 1250 935 bng 15 250 50 0 empty empty empty 17 7 0 10 -262144
-1 -1;
#X obj 1211 1083 mtof;
#X obj 1211 1108 osc~;
#X obj 1211 1252 *~;
#X obj 1211 1277 dac~;
#X obj 1211 1023 loadbang;
#X obj 1226 1227 vline~;
#X obj 1325 1083 mtof;
#X obj 1325 1108 osc~;
#X obj 1325 1252 *~;
#X obj 1325 1277 dac~;
#X obj 1325 1023 loadbang;
#X obj 1340 1227 vline~;
#X obj 1442 1086 mtof;
#X obj 1442 1111 osc~;
#X obj 1442 1255 *~;
#X obj 1442 1280 dac~;
#X obj 1442 1026 loadbang;
#X obj 1457 1230 vline~;
#X obj 1208 845 spigot;
#X obj 1241 819 tgl 15 0 empty empty empty 17 7 0 10 -262144 -1 -1
1 1;
#X floatatom 1215 987 5 0 0 0 - - -, f 5;
#X floatatom 1327 992 5 0 0 0 - - -, f 5;
#X floatatom 1327 992 5 0 0 0 - - -, f 5;
#X floatatom 1444 996 5 0 0 0 - - -, f 5;
#X msg 1211 1058 69;
#X msg 1325 1057 62;
#X msg 1442 1061 58;
#X msg 821 1034 77';
#X msg 935 1033 72;
#X msg 1052 1037 70;
#X obj 1163 299 spigot;
#X obj 1196 273 tgl 15 0 empty empty empty 17 7 0 10 -262144 -1 -1
1 1;
#X obj 1163 324 f;
#X obj 1194 323 + 1;
#X obj 1163 349 mod 4;
#X obj 1162 382 sel 0 1 2 3;
#X obj 1162 409 bng 15 250 50 0 empty empty empty 17 7 0 10 -262144
-1 -1;
#X obj 1183 410 bng 15 250 50 0 empty empty empty 17 7 0 10 -262144
-1 -1;
#X obj 1204 410 bng 15 250 50 0 empty empty empty 17 7 0 10 -262144
-1 -1;
#X obj 1165 558 mtof;
#X obj 1165 583 osc~;
#X obj 1165 727 *~;
#X obj 1165 752 dac~;
#X obj 1165 498 loadbang;
#X obj 1180 702 vline~;
#X obj 1279 558 mtof;
#X obj 1279 583 osc~;
#X obj 1279 727 *~;
#X obj 1279 752 dac~;
#X obj 1279 498 loadbang;
#X obj 1294 702 vline~;
#X obj 1396 561 mtof;
#X obj 1396 586 osc~;
#X obj 1396 730 *~;
#X obj 1396 755 dac~;
#X obj 1396 501 loadbang;
#X obj 1411 705 vline~;
#X floatatom 1169 462 5 0 0 0 - - -, f 5;
#X floatatom 1281 467 5 0 0 0 - - -, f 5;
#X floatatom 1281 467 5 0 0 0 - - -, f 5;
#X floatatom 1398 471 5 0 0 0 - - -, f 5;
#X msg 1165 533 30;
#X msg 1279 532 46;
#X msg 1396 536 52;
#X msg 1411 680 1 5 \, 0 90 5;
#X msg 1294 677 1 5 \, 0 90 5;
#X msg 1180 677 1 5 \, 0 90 5;
#X obj 798 282 spigot;
#X obj 831 256 tgl 15 0 empty empty empty 17 7 0 10 -262144 -1 -1 1
1;
#X obj 797 365 sel 0 1 2 3;
#X obj 797 392 bng 15 250 50 0 empty empty empty 17 7 0 10 -262144
-1 -1;
#X obj 818 393 bng 15 250 50 0 empty empty empty 17 7 0 10 -262144
-1 -1;
#X obj 839 393 bng 15 250 50 0 empty empty empty 17 7 0 10 -262144
-1 -1;
#X obj 800 541 mtof;
#X obj 800 566 osc~;
#X obj 800 710 *~;
#X obj 800 735 dac~;
#X obj 800 481 loadbang;
#X obj 815 685 vline~;
#X obj 914 541 mtof;
#X obj 914 566 osc~;
#X obj 914 710 *~;
#X obj 914 735 dac~;
#X obj 914 481 loadbang;
#X obj 929 685 vline~;
#X obj 1031 544 mtof;
#X obj 1031 569 osc~;
#X obj 1031 713 *~;
#X obj 1031 738 dac~;
#X obj 1031 484 loadbang;
#X obj 1046 688 vline~;
#X floatatom 804 445 5 0 0 0 - - -, f 5;
#X floatatom 916 450 5 0 0 0 - - -, f 5;
#X floatatom 916 450 5 0 0 0 - - -, f 5;
#X floatatom 1033 454 5 0 0 0 - - -, f 5;
#X obj 792 312 random 3;
#X msg 914 515 69;
#X msg 800 516 60;
#X msg 1031 518 76;
#X msg 815 660 1 5 \, 0 300 5;
#X msg 929 660 1 5 \, 0 300 5;
#X msg 1046 662 1 5 \, 0 300 5;
#X msg 1340 1202 1 5 \, 0 600 5;
#X msg 1457 1205 1 5 \, 0 600 5;
#X msg 1226 1202 1 5 \, 0 600 5;
#X connect 9 0 16 0;
#X connect 9 0 50 0;
#X connect 9 0 85 0;
#X connect 9 0 118 0;
#X connect 9 0 130 0;
#X connect 9 0 167 0;
#X connect 10 0 9 0;
#X connect 11 0 12 0;
#X connect 12 0 13 0;
#X connect 12 1 14 0;
#X connect 12 2 15 0;
#X connect 13 0 22 0;
#X connect 16 0 11 0;
#X connect 17 0 16 1;
#X connect 18 0 20 0;
#X connect 18 0 20 1;
#X connect 19 0 18 1;
#X connect 21 0 18 0;
#X connect 22 0 19 0;
#X connect 23 0 10 0;
#X connect 24 0 25 0;
#X connect 25 0 26 0;
#X connect 25 1 27 0;
#X connect 25 2 28 0;
#X connect 26 0 35 0;
#X connect 27 0 42 0;
#X connect 28 0 49 0;
#X connect 29 0 30 0;
#X connect 30 0 31 0;
#X connect 31 0 32 0;
#X connect 31 0 32 1;
#X connect 33 0 59 0;
#X connect 34 0 31 1;
#X connect 35 0 34 0;
#X connect 36 0 37 0;
#X connect 37 0 38 0;
#X connect 38 0 39 0;
#X connect 38 0 39 1;
#X connect 40 0 60 0;
#X connect 41 0 38 1;
#X connect 42 0 41 0;
#X connect 43 0 44 0;
#X connect 44 0 45 0;
#X connect 45 0 46 0;
#X connect 45 0 46 1;
#X connect 47 0 61 0;
#X connect 48 0 45 1;
#X connect 49 0 48 0;
#X connect 50 0 24 0;
#X connect 51 0 50 1;
#X connect 52 0 29 0;
#X connect 53 0 36 0;
#X connect 55 0 43 0;
#X connect 56 0 9 1;
#X connect 57 0 9 1;
#X connect 58 0 9 1;
#X connect 59 0 29 0;
#X connect 60 0 36 0;
#X connect 61 0 43 0;
#X connect 62 0 63 0;
#X connect 63 0 64 0;
#X connect 63 1 65 0;
#X connect 63 2 66 0;
#X connect 64 0 92 0;
#X connect 65 0 93 0;
#X connect 66 0 94 0;
#X connect 67 0 68 0;
#X connect 68 0 69 0;
#X connect 69 0 70 0;
#X connect 69 0 70 1;
#X connect 71 0 127 0;
#X connect 72 0 69 1;
#X connect 73 0 74 0;
#X connect 74 0 75 0;
#X connect 75 0 76 0;
#X connect 75 0 76 1;
#X connect 77 0 128 0;
#X connect 78 0 75 1;
#X connect 79 0 80 0;
#X connect 80 0 81 0;
#X connect 81 0 82 0;
#X connect 81 0 82 1;
#X connect 83 0 91 0;
#X connect 84 0 81 1;
#X connect 85 0 62 0;
#X connect 86 0 85 1;
#X connect 87 0 67 0;
#X connect 88 0 73 0;
#X connect 90 0 79 0;
#X connect 91 0 79 0;
#X connect 92 0 72 0;
#X connect 93 0 78 0;
#X connect 94 0 84 0;
#X connect 95 0 96 0;
#X connect 96 0 97 0;
#X connect 96 1 98 0;
#X connect 96 2 99 0;
#X connect 97 0 204 0;
#X connect 98 0 202 0;
#X connect 99 0 203 0;
#X connect 100 0 101 0;
#X connect 101 0 102 0;
#X connect 102 0 103 0;
#X connect 102 0 103 1;
#X connect 104 0 124 0;
#X connect 105 0 102 1;
#X connect 106 0 107 0;
#X connect 107 0 108 0;
#X connect 108 0 109 0;
#X connect 108 0 109 1;
#X connect 110 0 125 0;
#X connect 111 0 108 1;
#X connect 112 0 113 0;
#X connect 113 0 114 0;
#X connect 114 0 115 0;
#X connect 114 0 115 1;
#X connect 116 0 126 0;
#X connect 117 0 114 1;
#X connect 118 0 95 0;
#X connect 119 0 118 1;
#X connect 120 0 100 0;
#X connect 121 0 106 0;
#X connect 123 0 112 0;
#X connect 124 0 100 0;
#X connect 125 0 106 0;
#X connect 126 0 112 0;
#X connect 127 0 67 0;
#X connect 128 0 73 0;
#X connect 130 0 132 0;
#X connect 131 0 130 1;
#X connect 132 0 133 0;
#X connect 132 0 134 0;
#X connect 133 0 132 1;
#X connect 134 0 135 0;
#X connect 135 0 136 0;
#X connect 135 1 137 0;
#X connect 135 2 138 0;
#X connect 136 0 166 0;
#X connect 137 0 165 0;
#X connect 138 0 164 0;
#X connect 139 0 140 0;
#X connect 140 0 141 0;
#X connect 141 0 142 0;
#X connect 141 0 142 1;
#X connect 143 0 161 0;
#X connect 144 0 141 1;
#X connect 145 0 146 0;
#X connect 146 0 147 0;
#X connect 147 0 148 0;
#X connect 147 0 148 1;
#X connect 149 0 162 0;
#X connect 150 0 147 1;
#X connect 151 0 152 0;
#X connect 152 0 153 0;
#X connect 153 0 154 0;
#X connect 153 0 154 1;
#X connect 155 0 163 0;
#X connect 156 0 153 1;
#X connect 157 0 139 0;
#X connect 158 0 145 0;
#X connect 160 0 151 0;
#X connect 161 0 139 0;
#X connect 162 0 145 0;
#X connect 163 0 151 0;
#X connect 164 0 156 0;
#X connect 165 0 150 0;
#X connect 166 0 144 0;
#X connect 167 0 195 0;
#X connect 168 0 167 1;
#X connect 169 0 170 0;
#X connect 169 1 171 0;
#X connect 169 2 172 0;
#X connect 170 0 199 0;
#X connect 171 0 200 0;
#X connect 172 0 201 0;
#X connect 173 0 174 0;
#X connect 174 0 175 0;
#X connect 175 0 176 0;
#X connect 175 0 176 1;
#X connect 177 0 197 0;
#X connect 178 0 175 1;
#X connect 179 0 180 0;
#X connect 180 0 181 0;
#X connect 181 0 182 0;
#X connect 181 0 182 1;
#X connect 183 0 196 0;
#X connect 184 0 181 1;
#X connect 185 0 186 0;
#X connect 186 0 187 0;
#X connect 187 0 188 0;
#X connect 187 0 188 1;
#X connect 189 0 198 0;
#X connect 190 0 187 1;
#X connect 191 0 173 0;
#X connect 192 0 179 0;
#X connect 194 0 185 0;
#X connect 195 0 169 0;
#X connect 196 0 179 0;
#X connect 197 0 173 0;
#X connect 198 0 185 0;
#X connect 199 0 178 0;
#X connect 200 0 184 0;
#X connect 201 0 190 0;
#X connect 202 0 111 0;
#X connect 203 0 117 0;
#X connect 204 0 105 0;
