#N canvas 0 23 1680 1005 10;
#X obj 17 49 *~ 64000;
#X obj 813 106 dac~;
#N canvas 0 22 450 278 (subpatch) 0;
#X array array1 64 float 5;
#A 0 0 0 0 0 0 0 0 0 0 0 0 0 0 0 0 0 0 0 0 0 0 0 0 0 0 0 0 0 0 0 0
0 0 0 0 0 0 0 0 0 0 0 0 0 0 0 0 0 0 0 0 0 0 0 0 0 0 0 0 0 0 0 0 0;
#X coords 0 1 63 -1 400 240 1;
#X restore 212 -67 graph;
#X obj 17 27 phasor~ 0.125;
#X obj 16 84 s~ expr_1;
#X obj 15 235 r~ expr_1;
#X obj 15 491 s~ expr_out_1;
#X obj 83 393 line;
#X obj 118 323 bng 20 250 50 0 empty empty empty 17 7 0 10 -258699
-1 -1;
#X msg 118 358 0 2000;
#X obj 58 322 bng 20 250 50 0 startup empty empty 17 7 0 10 -24198
-1 -1;
#X floatatom 37 426 5 0 0 0 - - -;
#X obj 15 450 *~;
#X obj 814 -98 r~ expr_out_1;
#X msg 58 358 1 2000;
#X obj 684 31 bang~;
#X obj 662 -97 r~ expr_out_1;
#X obj 28 105 s~ expr_2;
#X obj 41 125 s~ expr_3;
#X obj 314 384 line;
#X obj 349 314 bng 20 250 50 0 empty empty empty 17 7 0 10 -258699
-1 -1;
#X msg 349 349 0 2000;
#X obj 289 313 bng 20 250 50 0 startup empty empty 17 7 0 10 -24198
-1 -1;
#X floatatom 268 417 5 0 0 0 - - -;
#X obj 248 441 *~;
#X msg 289 349 1 2000;
#X obj 248 226 r~ expr_2;
#X obj 248 482 s~ expr_out_2;
#X obj 831 -82 r~ expr_out_2;
#X obj 673 -77 r~ expr_out_2;
#X obj 715 387 line;
#X obj 750 317 bng 20 250 50 0 empty empty empty 17 7 0 10 -258699
-1 -1;
#X msg 750 352 0 2000;
#X obj 690 316 bng 20 250 50 0 startup empty empty 17 7 0 10 -24198
-1 -1;
#X floatatom 669 420 5 0 0 0 - - -;
#X obj 649 444 *~;
#X msg 690 352 1 2000;
#X obj 649 229 r~ expr_3;
#X obj 649 484 s~ expr_out_3;
#X obj 686 -58 r~ expr_out_3;
#X obj 836 -63 r~ expr_out_3;
#X obj 957 12 line;
#X obj 992 -58 bng 20 250 50 0 empty empty empty 17 7 0 10 -258699
-1 -1;
#X msg 992 -23 0 2000;
#X obj 932 -59 bng 20 250 50 0 startup empty empty 17 7 0 10 -24198
-1 -1;
#X floatatom 911 45 5 0 0 0 - - -;
#X msg 932 -23 1 2000;
#X obj 813 69 *~;
#X obj 1055 -37 del 250;
#X obj 1142 32 writesf~;
#X msg 1055 -7 start;
#X msg 1101 -7 stop;
#X obj 1079 33 r~ record;
#X obj 865 91 s~ record;
#X obj 1089 409 line;
#X obj 1124 339 bng 20 250 50 0 empty empty empty 17 7 0 10 -258699
-1 -1;
#X msg 1124 374 0 2000;
#X obj 1064 338 bng 20 250 50 0 startup empty empty 17 7 0 10 -24198
-1 -1;
#X floatatom 1043 442 5 0 0 0 - - -;
#X obj 1023 466 *~;
#X msg 1064 374 1 2000;
#X obj 1023 233 r~ expr_4;
#X obj 1023 506 s~ expr_out_4;
#X obj 52 143 s~ expr_4;
#X obj 841 -43 r~ expr_out_4;
#X obj 695 -40 r~ expr_out_4;
#X obj 81 694 line;
#X obj 116 624 bng 20 250 50 0 empty empty empty 17 7 0 10 -258699
-1 -1;
#X msg 116 659 0 2000;
#X obj 56 623 bng 20 250 50 0 startup empty empty 17 7 0 10 -24198
-1 -1;
#X floatatom 35 727 5 0 0 0 - - -;
#X obj 15 751 *~;
#X msg 56 659 1 2000;
#X obj 15 791 s~ expr_out_5;
#X obj 15 536 r~ expr_5;
#X obj 60 162 s~ expr_5;
#X obj 705 -21 r~ expr_out_5;
#X obj 847 -24 r~ expr_out_5;
#X obj 455 702 line;
#X obj 490 632 bng 20 250 50 0 empty empty empty 17 7 0 10 -258699
-1 -1;
#X msg 490 667 0 2000;
#X obj 430 631 bng 20 250 50 0 startup empty empty 17 7 0 10 -24198
-1 -1;
#X floatatom 409 735 5 0 0 0 - - -;
#X obj 389 759 *~;
#X msg 430 667 1 2000;
#X obj 389 544 r~ expr_6;
#X obj 389 800 s~ expr_out_6;
#X obj 69 179 s~ expr_6;
#X obj 713 0 r~ expr_out_6;
#X obj 849 -6 r~ expr_out_6;
#X obj 17 -140 tgl 15 0 empty empty empty 17 7 0 10 -262144 -1 -1 0
1;
#X obj 17 -87 random 4;
#X obj 17 -58 sel 1 2 3;
#X obj 248 262 expr~ sin($v1/($v1/1000%7*1.5)+sin($v1/($v1/1000%5*1.5))*sin($v1/500)*3)*0.75*pow(1-$v1%1000/1000
\, 1)*($v1/1000%6<$v1/1000%7);
#X obj 17 -116 metro 2500;
#X obj 389 584 expr~ sin($v1/($v1/2000%5*1.5)+sin($v1/($v1/1000%3*1.5)))*0.5
;
#X obj 1023 274 expr~ sin($v1/($v1/2000%7*1.5)+sin($v1/($v1/1000%5*1.5))*sin($v1/500)*3)*0.25
\;;
#X obj 15 577 expr~ sin($v1/($v1/2000%4)+sin($v1/($v1/2000%2))*sin($v1/500)*1)*0.25
;
#X obj 663 62 tabwrite~ array1;
#X obj 649 270 expr~ sin($v1/($v1/1000%8*0.5)+sin($v1/($v1/1000%2*1.5))*sin($v1/500)*3)*0.75*pow(1-$v1%1000/1000
\, 1)*($v1/1000%3<$v1/1000%4);
#X obj 17 -30 bng 15 250 50 0 empty empty empty 17 7 0 10 -262144 -1
-1;
#X obj 51 -30 bng 15 250 50 0 empty empty empty 17 7 0 10 -262144 -1
-1;
#X obj 143 -30 bng 15 250 50 0 empty empty empty 17 7 0 10 -262144
-1 -1;
#X obj 93 -30 bng 15 250 50 0 empty empty empty 17 7 0 10 -262144 -1
-1;
#X msg 17 -7 0.1;
#X msg 51 -7 0.125;
#X msg 93 -7 0.0625;
#X msg 143 -7 0.0835;
#X obj 932 -93 loadbang;
#X obj 15 266 expr~ sin($v1/2500%8*2.5);
#X obj 1107 -68 bng 20 250 50 0 empty empty empty 17 7 0 10 -258699
-1 -1;
#X obj 1055 -69 bng 20 250 50 0 startup empty empty 17 7 0 10 -24198
-1 -1;
#X msg 1141 -7 open The_Expr_Object.wav;
#X connect 0 0 4 0;
#X connect 0 0 17 0;
#X connect 0 0 18 0;
#X connect 0 0 63 0;
#X connect 0 0 75 0;
#X connect 0 0 87 0;
#X connect 3 0 0 0;
#X connect 5 0 109 0;
#X connect 7 0 11 0;
#X connect 8 0 9 0;
#X connect 9 0 7 0;
#X connect 10 0 14 0;
#X connect 11 0 12 1;
#X connect 12 0 6 0;
#X connect 13 0 47 0;
#X connect 14 0 7 0;
#X connect 15 0 98 0;
#X connect 16 0 98 0;
#X connect 19 0 23 0;
#X connect 20 0 21 0;
#X connect 21 0 19 0;
#X connect 22 0 25 0;
#X connect 23 0 24 1;
#X connect 24 0 27 0;
#X connect 25 0 19 0;
#X connect 26 0 93 0;
#X connect 28 0 47 0;
#X connect 29 0 98 0;
#X connect 30 0 34 0;
#X connect 31 0 32 0;
#X connect 32 0 30 0;
#X connect 33 0 36 0;
#X connect 34 0 35 1;
#X connect 35 0 38 0;
#X connect 36 0 30 0;
#X connect 37 0 99 0;
#X connect 39 0 98 0;
#X connect 40 0 47 0;
#X connect 41 0 45 0;
#X connect 42 0 43 0;
#X connect 43 0 41 0;
#X connect 44 0 46 0;
#X connect 45 0 47 1;
#X connect 46 0 41 0;
#X connect 47 0 1 0;
#X connect 47 0 1 1;
#X connect 47 0 53 0;
#X connect 48 0 50 0;
#X connect 50 0 49 0;
#X connect 51 0 49 0;
#X connect 52 0 49 0;
#X connect 54 0 58 0;
#X connect 55 0 56 0;
#X connect 56 0 54 0;
#X connect 57 0 60 0;
#X connect 58 0 59 1;
#X connect 59 0 62 0;
#X connect 60 0 54 0;
#X connect 61 0 96 0;
#X connect 64 0 47 0;
#X connect 65 0 98 0;
#X connect 66 0 70 0;
#X connect 67 0 68 0;
#X connect 68 0 66 0;
#X connect 69 0 72 0;
#X connect 70 0 71 1;
#X connect 71 0 73 0;
#X connect 72 0 66 0;
#X connect 74 0 97 0;
#X connect 76 0 98 0;
#X connect 77 0 47 0;
#X connect 78 0 82 0;
#X connect 79 0 80 0;
#X connect 80 0 78 0;
#X connect 81 0 84 0;
#X connect 82 0 83 1;
#X connect 83 0 86 0;
#X connect 84 0 78 0;
#X connect 85 0 95 0;
#X connect 88 0 98 0;
#X connect 89 0 47 0;
#X connect 90 0 94 0;
#X connect 91 0 92 0;
#X connect 92 0 100 0;
#X connect 92 1 101 0;
#X connect 92 2 103 0;
#X connect 92 3 102 0;
#X connect 93 0 24 0;
#X connect 94 0 91 0;
#X connect 95 0 83 0;
#X connect 96 0 59 0;
#X connect 97 0 71 0;
#X connect 99 0 35 0;
#X connect 100 0 104 0;
#X connect 101 0 105 0;
#X connect 102 0 107 0;
#X connect 103 0 106 0;
#X connect 104 0 3 0;
#X connect 105 0 3 0;
#X connect 106 0 3 0;
#X connect 107 0 3 0;
#X connect 108 0 44 0;
#X connect 109 0 12 0;
#X connect 110 0 51 0;
#X connect 111 0 48 0;
#X connect 111 0 112 0;
#X connect 112 0 49 0;
