#N canvas 555 44 1297 859 10;
#X obj 429 39 tgl 15 0 empty empty empty 17 7 0 10 -262144 -1 -1 0
1;
#X obj 138 124 counter 0 0 3;
#X obj 138 147 sel 0 1 2 3;
#X obj 138 168 tgl 15 0 empty empty empty 17 7 0 10 -262144 -1 -1 0
1;
#X obj 154 168 tgl 15 0 empty empty empty 17 7 0 10 -262144 -1 -1 0
1;
#X obj 170 168 tgl 15 0 empty empty empty 17 7 0 10 -262144 -1 -1 0
1;
#X obj 186 168 tgl 15 0 empty empty empty 17 7 0 10 -262144 -1 -1 0
1;
#X obj 52 221 sel 0 1;
#X obj 36 336 *~;
#X obj 153 221 sel 0 1;
#X obj 137 336 *~;
#X obj 258 221 sel 0 1;
#X obj 242 336 *~;
#X obj 371 221 sel 0 1;
#X obj 355 336 *~;
#X obj 462 143 tgl 15 0 empty empty empty 17 7 0 10 -262144 -1 -1 0
1;
#X obj 500 206 sel 0 1 2 3;
#X obj 500 227 tgl 15 0 empty empty empty 17 7 0 10 -262144 -1 -1 0
1;
#X obj 516 227 tgl 15 0 empty empty empty 17 7 0 10 -262144 -1 -1 0
1;
#X obj 532 227 tgl 15 0 empty empty empty 17 7 0 10 -262144 -1 -1 0
1;
#X obj 548 227 tgl 15 0 empty empty empty 17 7 0 10 -262144 -1 -1 0
1;
#N canvas 0 0 450 300 (subpatch) 0;
#X array array 100 float 3;
#A 0 0.000572749 0.000595017 0.000617269 0.000639505 0.000661725 0.000683929
0.000706118 0.000728291 0.000750447 0.000772589 0.000794714 0.000816824
0.000838917 0.000860995 0.000883058 0.000905105 0.000927135 0.00094915
0.00097115 0.000993134 0.0010151 0.00103705 0.00105899 0.00108091 0.00110282
0.00112471 0.00114658 0.00116844 0.00119029 0.00121211 0.00123393 0.00125572
0.0012775 0.00129927 0.00132102 0.00134275 0.00136447 0.00138618 0.00140786
0.00142954 0.00145119 0.00147284 0.00149446 0.00151607 0.00153767 0.00155925
0.00158082 0.00160237 0.0016239 0.00164542 0.00166692 0.00168841 0.00170988
0.00173134 0.00175278 0.00177421 0.00179562 0.00181702 -0.0019116 -0.00188756
-0.00186354 -0.00183954 -0.00181555 -0.00179158 -0.00176763 -0.0017437
-0.00171978 -0.00169588 -0.00167199 -0.00164813 -0.00162428 -0.00160044
-0.00157663 -0.00155283 -0.00152905 -0.00150528 -0.00148153 -0.0014578
-0.00143409 -0.00141039 -0.00138671 -0.00136305 -0.0013394 -0.00131577
-0.00129216 -0.00126856 -0.00124498 -0.00122142 -0.00119787 -0.00117434
-0.00115083 -0.00112734 -0.00110386 -0.0010804 -0.00105695 -0.00103352
-0.00101011 -0.000986714 -0.000963335 -0.000939973;
#X coords 0 1 99 -1 200 140 1;
#X restore 96 443 graph;
#X obj 429 166 spigot;
#X obj 242 358 *~ 0.5;
#X obj 355 358 *~ 0.5;
#X obj 137 358 *~ 0.5;
#X obj 36 358 *~ 0.5;
#X msg 153 245 0 1000;
#X msg 258 245 0 1000;
#X msg 371 245 0 1000;
#X msg 52 245 0 1000;
#X obj 36 307 phasor~ 100;
#X obj 137 307 phasor~ 200;
#X obj 242 307 phasor~ 300;
#X obj 356 307 phasor~ 400;
#X obj 469 317 phasor~ 200;
#X obj 548 317 phasor~ 100;
#X obj 623 317 phasor~ 400;
#X obj 429 59 metro 150;
#X obj 889 198 i;
#X obj 889 220 + 1;
#X obj 867 265 sel 0;
#X obj 867 309 line~;
#X obj 867 331 *~;
#X obj 867 397 *~;
#X obj 975 42 tgl 15 0 empty empty empty 17 7 0 10 -262144 -1 -1 0
1;
#X msg 923 173 2;
#X msg 923 198 4;
#X msg 923 222 6;
#X obj 889 241 mod;
#X obj 975 88 random 5;
#X msg 923 269 1;
#X obj 975 112 sel 0 1 2 3 4;
#X msg 924 291 0;
#X obj 867 353 *~ 300;
#X obj 867 375 osc~;
#X msg 867 287 1 \, 0 90;
#X obj 975 63 metro 500;
#X msg 923 244 8;
#X obj 258 271 line~;
#X obj 371 271 line~;
#X obj 153 271 line~;
#X obj 52 271 line~;
#X msg 206 245 1 5;
#X msg 106 245 1 5;
#X msg 421 245 1 5;
#X obj 518 562 tabwrite~ array;
#X obj 627 52 tgl 15 0 empty empty empty 17 7 0 10 -262144 -1 -1 0
1;
#X obj 677 115 sel 0 1 2 3;
#X obj 677 136 tgl 15 0 empty empty empty 17 7 0 10 -262144 -1 -1 0
1;
#X obj 693 136 tgl 15 0 empty empty empty 17 7 0 10 -262144 -1 -1 0
1;
#X obj 709 136 tgl 15 0 empty empty empty 17 7 0 10 -262144 -1 -1 0
1;
#X obj 725 136 tgl 15 0 empty empty empty 17 7 0 10 -262144 -1 -1 0
1;
#X obj 594 75 spigot;
#X obj 775 225 phasor~ 500;
#X obj 700 225 phasor~ 300;
#X obj 621 225 phasor~ 100;
#X msg 309 245 2 5;
#X obj 947 146 loadbang;
#X obj 294 62 tgl 15 0 empty empty empty 17 7 0 10 -262144 -1 -1 0
1;
#X obj 261 85 spigot;
#X obj 447 557 clip~ -1 1;
#X obj 867 419 *~ 5;
#X obj 447 479 /~ 4;
#X obj 446 452 *~ 1;
#X obj 447 533 hip~ 5;
#X obj 446 508 *~ 0.5;
#X obj 414 98 s message;
#X obj 518 540 r message;
#X obj 429 15 loadbang;
#X obj 447 586 dac~;
#X obj 641 504 del 250;
#X msg 641 534 start;
#X msg 687 534 stop;
#X obj 657 573 r~ record;
#X obj 693 473 bng 20 250 50 0 empty empty empty 17 7 0 10 -258699
-1 -1;
#X obj 641 472 bng 20 250 50 0 startup empty empty 17 7 0 10 -24198
-1 -1;
#X obj 728 573 writesf~ 2;
#X msg 728 533 open phasor_kick.wav;
#X obj 480 586 s~ record;
#X obj 470 342 *~ 0.005;
#X obj 547 342 *~ 0.005;
#X obj 622 342 *~ 0.005;
#X obj 621 250 *~ 0.005;
#X obj 701 250 *~ 0.005;
#X obj 775 250 *~ 0.005;
#X connect 0 0 38 0;
#X connect 1 0 2 0;
#X connect 1 0 22 0;
#X connect 1 0 73 0;
#X connect 2 0 3 0;
#X connect 2 1 4 0;
#X connect 2 2 5 0;
#X connect 2 3 6 0;
#X connect 3 0 7 0;
#X connect 4 0 9 0;
#X connect 5 0 11 0;
#X connect 6 0 13 0;
#X connect 7 0 30 0;
#X connect 7 1 64 0;
#X connect 8 0 26 0;
#X connect 9 0 27 0;
#X connect 9 1 63 0;
#X connect 10 0 25 0;
#X connect 11 0 28 0;
#X connect 11 1 77 0;
#X connect 12 0 23 0;
#X connect 13 0 29 0;
#X connect 13 1 65 0;
#X connect 14 0 24 0;
#X connect 15 0 22 1;
#X connect 16 0 17 0;
#X connect 16 1 18 0;
#X connect 16 2 19 0;
#X connect 16 3 20 0;
#X connect 17 0 100 1;
#X connect 18 0 101 1;
#X connect 19 0 102 1;
#X connect 22 0 16 0;
#X connect 23 0 84 0;
#X connect 24 0 84 0;
#X connect 25 0 84 0;
#X connect 26 0 84 0;
#X connect 27 0 61 0;
#X connect 28 0 59 0;
#X connect 29 0 60 0;
#X connect 30 0 62 0;
#X connect 31 0 8 0;
#X connect 32 0 10 0;
#X connect 33 0 12 0;
#X connect 34 0 14 0;
#X connect 35 0 100 0;
#X connect 36 0 101 0;
#X connect 37 0 102 0;
#X connect 38 0 39 0;
#X connect 38 0 87 0;
#X connect 38 0 80 0;
#X connect 39 0 40 0;
#X connect 39 0 41 0;
#X connect 40 0 49 0;
#X connect 41 0 56 0;
#X connect 42 0 43 0;
#X connect 42 0 43 1;
#X connect 43 0 44 1;
#X connect 43 0 54 0;
#X connect 44 0 82 0;
#X connect 45 0 57 0;
#X connect 46 0 49 1;
#X connect 47 0 49 1;
#X connect 48 0 49 1;
#X connect 49 0 39 1;
#X connect 50 0 52 0;
#X connect 51 0 49 1;
#X connect 52 0 46 0;
#X connect 52 1 47 0;
#X connect 52 2 48 0;
#X connect 52 3 58 0;
#X connect 52 4 51 0;
#X connect 52 5 53 0;
#X connect 53 0 49 1;
#X connect 54 0 55 0;
#X connect 55 0 44 0;
#X connect 56 0 42 0;
#X connect 57 0 50 0;
#X connect 58 0 49 1;
#X connect 59 0 12 1;
#X connect 60 0 14 1;
#X connect 61 0 10 1;
#X connect 62 0 8 1;
#X connect 63 0 61 0;
#X connect 64 0 62 0;
#X connect 65 0 60 0;
#X connect 67 0 73 1;
#X connect 68 0 69 0;
#X connect 68 1 70 0;
#X connect 68 2 71 0;
#X connect 68 3 72 0;
#X connect 69 0 103 1;
#X connect 70 0 104 1;
#X connect 71 0 105 1;
#X connect 73 0 68 0;
#X connect 74 0 105 0;
#X connect 75 0 104 0;
#X connect 76 0 103 0;
#X connect 77 0 59 0;
#X connect 78 0 47 0;
#X connect 79 0 80 1;
#X connect 80 0 1 0;
#X connect 81 0 66 0;
#X connect 81 0 90 0;
#X connect 81 0 90 1;
#X connect 81 0 99 0;
#X connect 82 0 84 0;
#X connect 83 0 86 0;
#X connect 84 0 83 0;
#X connect 85 0 81 0;
#X connect 86 0 85 0;
#X connect 88 0 66 0;
#X connect 89 0 0 0;
#X connect 91 0 92 0;
#X connect 92 0 97 0;
#X connect 93 0 97 0;
#X connect 94 0 97 0;
#X connect 94 0 97 1;
#X connect 95 0 93 0;
#X connect 96 0 91 0;
#X connect 96 0 98 0;
#X connect 98 0 97 0;
#X connect 100 0 84 0;
#X connect 101 0 84 0;
#X connect 102 0 84 0;
#X connect 103 0 84 0;
#X connect 104 0 84 0;
#X connect 105 0 84 0;
