#N canvas -8 -8 1920 976 12;
#X obj 264 206 *~;
#X obj 369 101 sel 0 3;
#X obj 381 276 *~;
#X obj 264 230 *~;
#X obj 488 438 *~;
#X msg 488 139 get \$1 1, f 4;
#X obj 588 448 *~;
#X obj 488 281 t f b f b;
#X obj 488 251 mtof;
#X obj 415 620 *~ 0.25;
#X obj 524 -52 tgl 15 0 empty empty empty 17 7 0 10 -262144 -1 -1 1
1;
#X obj 368 71 random 5;
#X obj 399 190 line~;
#X obj 293 176 line~;
#X obj 506 387 line~;
#X obj 606 393 line~;
#X obj 524 -24 metro 150;
#X obj 488 108 random 9;
#X obj 47 190 i;
#X obj 25 257 sel 0;
#X obj 25 301 line~;
#X obj 25 323 *~;
#X obj 25 389 *~;
#X obj 161 28 tgl 15 0 empty empty empty 17 7 0 10 -262144 -1 -1 1
1;
#X msg 109 159 2;
#X msg 109 184 4;
#X msg 109 208 6;
#X obj 47 233 mod;
#X msg 109 255 1;
#X msg 109 230 8;
#X obj 133 132 loadbang;
#X obj 962 614 *~;
#X obj 980 558 line~;
#X msg 980 534 1 \, 0 600;
#X obj 1037 379 spigot;
#X obj 1076 350 tgl 15 0 empty empty empty 17 7 0 10 -262144 -1 -1
0 1;
#X obj 962 584 phasor~ 100;
#X obj 1240 409 counter 0 0 3;
#X obj 1240 432 sel 0 1 2 3;
#X obj 1240 453 tgl 15 0 empty empty empty 17 7 0 10 -262144 -1 -1
0 1;
#X obj 1256 453 tgl 15 0 empty empty empty 17 7 0 10 -262144 -1 -1
0 1;
#X obj 1272 453 tgl 15 0 empty empty empty 17 7 0 10 -262144 -1 -1
0 1;
#X obj 1288 453 tgl 15 0 empty empty empty 17 7 0 10 -262144 -1 -1
0 1;
#X obj 1240 367 spigot;
#X obj 1279 338 tgl 15 0 empty empty empty 17 7 0 10 -262144 -1 -1
0 1;
#X obj 1174 611 *~;
#X obj 1192 525 line~;
#X msg 1192 501 1 \, 0 600;
#X obj 1276 612 *~;
#X obj 1294 526 line~;
#X msg 1294 502 1 \, 0 600;
#X obj 1378 612 *~;
#X obj 1396 526 line~;
#X msg 1396 502 1 \, 0 600;
#X obj 1174 551 phasor~ 400;
#X obj 1276 552 phasor~ 300;
#X obj 1378 552 phasor~ 200;
#X obj 1052 145 sel 0 1 2 3;
#X obj 1052 166 tgl 15 0 empty empty empty 17 7 0 10 -262144 -1 -1
0 1;
#X obj 1068 166 tgl 15 0 empty empty empty 17 7 0 10 -262144 -1 -1
0 1;
#X obj 1084 166 tgl 15 0 empty empty empty 17 7 0 10 -262144 -1 -1
0 1;
#X obj 1100 166 tgl 15 0 empty empty empty 17 7 0 10 -262144 -1 -1
0 1;
#X obj 1170 255 phasor~ 500;
#X obj 1082 255 phasor~ 300;
#X obj 996 255 phasor~ 100;
#X obj 1037 99 random 6;
#X obj 989 59 spigot;
#X obj 1028 30 tgl 15 0 empty empty empty 17 7 0 10 -262144 -1 -1 0
1;
#X obj 883 104 counter 0 0 3;
#X obj 883 69 spigot;
#X obj 922 40 tgl 15 0 empty empty empty 17 7 0 10 -262144 -1 -1 0
1;
#X obj 1014 230 line~;
#X obj 996 280 *~;
#X obj 1083 280 *~;
#X obj 1170 280 *~;
#X obj 1100 227 line~;
#X obj 1188 230 line~;
#X obj 488 183 list store 50 55 57 60 66 69, f 10;
#X obj 264 97 phasor~ 6;
#X msg 300 152 1 \, 0 600;
#X msg 1014 206 1 \, 0 500;
#X msg 1100 203 1 \, 0 500;
#X msg 1188 206 1 \, 0 500;
#X obj 53 599 del 250;
#X msg 53 629 start;
#X msg 99 629 stop;
#X obj 69 668 r~ record;
#X obj 105 568 bng 20 250 50 0 empty empty empty 17 7 0 10 -258699
-1 -1;
#X obj 53 567 bng 20 250 50 0 startup empty empty 17 7 0 10 -24198
-1 -1;
#X obj 140 668 writesf~ 2;
#X msg 140 628 open random_mess.wav;
#X obj 523 773 tabwrite~ array;
#X obj 415 744 clip~ -1 1;
#X obj 523 742 r message;
#X obj 415 773 dac~;
#X obj 451 773 s~ record;
#X obj 596 -24 s message;
#N canvas 0 22 450 300 (subpatch) 0;
#X array array 100 float 3;
#A 0 0.0796761 -0.229928 0.0267417 0.0165883 0.0243261 -0.224159 -0.0842155
0.172089 0.173323 0.184692 0.139183 -0.101424 0.0883012 -0.151474 0.165803
0.175529 0.220189 -0.186597 0.0614024 -0.116034 0.171703 0.108782 -0.0697918
-0.129802 -0.178798 0.155038 0.226794 0.178596 -0.183264 -0.217982
-0.0288303 -0.0979894 -0.0268074 -0.133535 -0.222596 0.104207 0.0210058
0.139987 -0.181872 -0.0337901 0.223319 0.0844422 0.138731 -0.0490551
-0.0925189 -0.0613217 -0.131307 0.169168 -0.203737 -0.136006 0.220532
-0.138459 -0.193938 0.214902 0.0332384 -0.0739488 0.152348 -0.0149402
-0.0124101 0.198179 -0.104569 0.240884 -0.134122 -0.209156 0.223047
-0.10598 0.075793 -0.032615 -0.156189 -0.146776 0.139945 -0.134177
-0.0429722 0.019227 -0.0273222 0.0963353 -0.0983065 -0.197902 0.0600314
0.170897 -0.060474 0.191661 0.0789195 -0.0812612 0.0516221 0.176408
-0.193537 0.0473771 0.0645823 0.0154709 -0.101228 -0.0479713 0.132914
-0.178843 0.157976 -0.0417539 0.144257 0.181287 0.0797716 -0.147157
;
#X coords 0 1 100 -1 200 140 1;
#X restore 53 726 graph;
#X msg 506 363 1 \, 0 200;
#X msg 606 365 1 \, 0 2000;
#X obj 588 421 phasor~ 8;
#X obj 488 413 phasor~ 8;
#X obj 726 487 *~;
#X msg 727 170 get \$1 1, f 4;
#X obj 829 490 *~;
#X obj 727 312 t f b f b;
#X obj 727 282 mtof;
#X obj 744 429 line~;
#X obj 847 433 line~;
#X obj 727 139 random 9;
#X obj 726 459 phasor~ 8;
#X obj 829 461 phasor~ 0.1;
#X msg 744 405 1 \, 0 3000;
#X obj 727 214 list store 60 62 65 67 60 63, f 10;
#X msg 847 405 1 \, 0 100;
#X msg 399 166 1 \, 0 300;
#X obj 1340 281 *~;
#X msg 1367 75 get \$1 1, f 4;
#X obj 1367 166 mtof;
#X obj 1368 247 line~;
#X obj 1340 197 phasor~ 8;
#X obj 1367 44 random 2;
#X msg 1368 223 1 \, 0 600;
#X obj 727 107 spigot;
#X obj 766 78 tgl 15 0 empty empty empty 17 7 0 10 -262144 -1 -1 0
1;
#X obj 1367 10 spigot;
#X obj 1406 -19 tgl 15 0 empty empty empty 17 7 0 10 -262144 -1 -1
0 1;
#X obj 1456 281 *~;
#X msg 1484 67 get \$1 1, f 4;
#X obj 1484 161 mtof;
#X obj 1484 247 line~;
#X obj 1456 197 phasor~;
#X msg 1484 223 1 \, 0 600;
#X obj 381 216 phasor~ 600;
#X obj 1037 447 sel 0 1 2 3;
#X obj 1037 468 tgl 15 0 empty empty empty 17 7 0 10 -262144 -1 -1
0 1;
#X obj 1053 468 tgl 15 0 empty empty empty 17 7 0 10 -262144 -1 -1
0 1;
#X obj 1069 468 tgl 15 0 empty empty empty 17 7 0 10 -262144 -1 -1
0 1;
#X obj 1085 468 tgl 15 0 empty empty empty 17 7 0 10 -262144 -1 -1
0 1;
#X obj 1065 618 *~;
#X obj 1083 557 line~;
#X msg 1083 533 1 \, 0 600;
#X obj 1065 583 phasor~ 500;
#X obj 1037 411 random 2;
#X obj 1484 6 spigot;
#X obj 1523 -23 tgl 15 0 empty empty empty 17 7 0 10 -262144 -1 -1
0 1;
#X obj 594 565 delread~ del 450, f 8;
#X obj 562 670 delwrite~ del 500, f 9;
#X obj 520 620 *~ 0.25;
#X obj 401 35 spigot;
#X obj 440 6 tgl 15 0 empty empty empty 17 7 0 10 -262144 -1 -1 1 1
;
#X obj 640 620 *~ 0.25;
#X obj 524 73 spigot;
#X obj 563 44 tgl 15 0 empty empty empty 17 7 0 10 -262144 -1 -1 0
1;
#X obj 47 127 spigot;
#X obj 86 98 tgl 15 0 empty empty empty 17 7 0 10 -262144 -1 -1 1 1
;
#X obj 1367 119 list store 68 64 66, f 10;
#X obj 1484 111 list store 62 60 58, f 10;
#X obj 1484 36 random 5;
#X obj 719 621 *~ 0.25;
#X obj 837 623 *~ 0.25;
#X obj 47 212 + 1;
#X obj 161 98 sel 0 1 2 3;
#X obj 25 415 *~ 1;
#X obj 161 49 metro 500;
#X obj 161 74 random 6;
#X msg 25 279 1 \, 0 90;
#X obj 25 345 *~ 800;
#X obj 25 367 noise~;
#X obj 524 -87 loadbang;
#X connect 0 0 3 0;
#X connect 0 0 3 1;
#X connect 1 0 79 0;
#X connect 1 1 115 0;
#X connect 2 0 9 0;
#X connect 3 0 9 0;
#X connect 4 0 148 0;
#X connect 5 0 77 0;
#X connect 6 0 148 0;
#X connect 7 0 101 0;
#X connect 7 1 98 0;
#X connect 7 2 100 0;
#X connect 7 3 99 0;
#X connect 8 0 7 0;
#X connect 9 0 92 0;
#X connect 10 0 16 0;
#X connect 11 0 1 0;
#X connect 12 0 2 1;
#X connect 13 0 0 1;
#X connect 14 0 4 1;
#X connect 15 0 6 1;
#X connect 16 0 34 0;
#X connect 16 0 43 0;
#X connect 16 0 66 0;
#X connect 16 0 69 0;
#X connect 16 0 96 0;
#X connect 16 0 123 0;
#X connect 16 0 125 0;
#X connect 16 0 144 0;
#X connect 16 0 149 0;
#X connect 16 0 152 0;
#X connect 16 0 154 0;
#X connect 17 0 5 0;
#X connect 18 0 19 0;
#X connect 18 0 161 0;
#X connect 19 0 166 0;
#X connect 20 0 21 0;
#X connect 20 0 21 1;
#X connect 21 0 22 1;
#X connect 21 0 167 0;
#X connect 22 0 163 0;
#X connect 23 0 164 0;
#X connect 24 0 27 1;
#X connect 25 0 27 1;
#X connect 26 0 27 1;
#X connect 27 0 18 1;
#X connect 28 0 27 1;
#X connect 29 0 27 1;
#X connect 30 0 25 0;
#X connect 30 0 23 0;
#X connect 31 0 159 0;
#X connect 32 0 31 1;
#X connect 33 0 32 0;
#X connect 34 0 143 0;
#X connect 35 0 34 1;
#X connect 36 0 31 0;
#X connect 37 0 38 0;
#X connect 38 0 39 0;
#X connect 38 1 40 0;
#X connect 38 2 41 0;
#X connect 38 3 42 0;
#X connect 39 0 33 0;
#X connect 40 0 47 0;
#X connect 41 0 50 0;
#X connect 42 0 53 0;
#X connect 43 0 37 0;
#X connect 44 0 43 1;
#X connect 45 0 159 0;
#X connect 46 0 45 1;
#X connect 47 0 46 0;
#X connect 48 0 159 0;
#X connect 49 0 48 1;
#X connect 50 0 49 0;
#X connect 51 0 159 0;
#X connect 52 0 51 1;
#X connect 53 0 52 0;
#X connect 54 0 45 0;
#X connect 55 0 48 0;
#X connect 56 0 51 0;
#X connect 57 0 58 0;
#X connect 57 1 59 0;
#X connect 57 2 60 0;
#X connect 57 3 61 0;
#X connect 58 0 80 0;
#X connect 59 0 81 0;
#X connect 60 0 82 0;
#X connect 62 0 74 0;
#X connect 63 0 73 0;
#X connect 64 0 72 0;
#X connect 65 0 57 0;
#X connect 66 0 65 0;
#X connect 67 0 66 1;
#X connect 68 0 57 0;
#X connect 69 0 68 0;
#X connect 70 0 69 1;
#X connect 71 0 72 1;
#X connect 72 0 160 0;
#X connect 73 0 160 0;
#X connect 74 0 160 0;
#X connect 75 0 73 1;
#X connect 76 0 74 1;
#X connect 77 0 8 0;
#X connect 78 0 0 0;
#X connect 79 0 13 0;
#X connect 80 0 71 0;
#X connect 81 0 75 0;
#X connect 82 0 76 0;
#X connect 83 0 84 0;
#X connect 84 0 89 0;
#X connect 85 0 89 0;
#X connect 86 0 89 0;
#X connect 86 0 89 1;
#X connect 87 0 85 0;
#X connect 88 0 83 0;
#X connect 88 0 90 0;
#X connect 90 0 89 0;
#X connect 92 0 94 0;
#X connect 92 0 94 1;
#X connect 92 0 95 0;
#X connect 92 0 91 0;
#X connect 93 0 91 0;
#X connect 98 0 14 0;
#X connect 99 0 15 0;
#X connect 100 0 6 0;
#X connect 101 0 4 0;
#X connect 102 0 151 0;
#X connect 103 0 113 0;
#X connect 104 0 151 0;
#X connect 105 0 110 0;
#X connect 105 1 112 0;
#X connect 105 2 111 0;
#X connect 105 3 114 0;
#X connect 106 0 105 0;
#X connect 107 0 102 1;
#X connect 108 0 104 1;
#X connect 109 0 103 0;
#X connect 110 0 102 0;
#X connect 111 0 104 0;
#X connect 112 0 107 0;
#X connect 113 0 106 0;
#X connect 114 0 108 0;
#X connect 115 0 12 0;
#X connect 116 0 9 0;
#X connect 117 0 156 0;
#X connect 118 0 120 0;
#X connect 118 0 122 0;
#X connect 119 0 116 1;
#X connect 120 0 116 0;
#X connect 121 0 117 0;
#X connect 122 0 119 0;
#X connect 123 0 109 0;
#X connect 124 0 123 1;
#X connect 125 0 121 0;
#X connect 126 0 125 1;
#X connect 127 0 9 0;
#X connect 128 0 157 0;
#X connect 129 0 132 0;
#X connect 129 0 131 0;
#X connect 130 0 127 1;
#X connect 131 0 127 0;
#X connect 132 0 130 0;
#X connect 133 0 2 0;
#X connect 134 0 135 0;
#X connect 134 1 136 0;
#X connect 134 2 137 0;
#X connect 134 3 138 0;
#X connect 135 0 33 0;
#X connect 136 0 141 0;
#X connect 139 0 159 0;
#X connect 140 0 139 1;
#X connect 141 0 140 0;
#X connect 142 0 139 0;
#X connect 143 0 134 0;
#X connect 144 0 158 0;
#X connect 145 0 144 1;
#X connect 146 0 148 0;
#X connect 146 0 151 0;
#X connect 148 0 92 0;
#X connect 148 0 147 0;
#X connect 149 0 11 0;
#X connect 150 0 149 1;
#X connect 151 0 92 0;
#X connect 151 0 147 0;
#X connect 152 0 17 0;
#X connect 153 0 152 1;
#X connect 154 0 18 0;
#X connect 155 0 154 1;
#X connect 156 0 118 0;
#X connect 157 0 129 0;
#X connect 158 0 128 0;
#X connect 159 0 92 0;
#X connect 160 0 92 0;
#X connect 161 0 27 0;
#X connect 162 0 24 0;
#X connect 162 1 25 0;
#X connect 162 2 26 0;
#X connect 162 3 29 0;
#X connect 162 4 28 0;
#X connect 163 0 9 0;
#X connect 164 0 165 0;
#X connect 165 0 162 0;
#X connect 166 0 20 0;
#X connect 168 0 22 0;
#X connect 169 0 10 0;
