#N canvas 5112 -8 1920 1037 10;
#X obj 1 1 cnv 15 603 62 empty empty empty 20 12 0 14 -233017 -66577
0;
#X obj 1 49 cnv 15 603 25 empty empty empty 20 12 0 14 -191407 -66577
0;
#X text 11 29 by 8v01d (infinite void), f 82;
#X obj 1 72 cnv 15 603 25 empty empty empty 20 12 0 14 -128992 -66577
0;
#X obj 1 95 cnv 15 603 25 empty empty empty 20 12 0 14 -99865 -262144
0;
#X text 11 74 Contact: thisis8v01d@gmail.com, f 82;
#X text 11 8 Noisy Patch Expansion, f 82;
#X obj 36 164 cnv 15 433 179 empty empty empty 20 12 0 14 -233017 -66577
0;
#X obj 49 204 tgl 15 1 \$0-1 empty 1_thumping_background 17 7 0 10
-262144 -1 -1 0 1;
#X obj 49 224 tgl 15 1 \$0-2 empty 2_thumping_background_random 17
7 0 10 -262144 -1 -1 0 1;
#X obj 49 244 tgl 15 1 \$0-3 empty 3_slight_bellish_sound 17 7 0 10
-262144 -1 -1 0 1;
#X obj 49 264 tgl 15 1 \$0-4 empty 4_high_pitched_bellish_sound 17
7 0 10 -262144 -1 -1 0 1;
#X obj 49 283 tgl 15 1 \$0-5 empty 5_patterned_high_pitched_bellish_sound
17 7 0 10 -262144 -1 -1 0 1;
#X obj 49 302 tgl 15 1 \$0-6 empty 6_rythmic_bellish_sounds_(set_1)
17 7 0 10 -262144 -1 -1 0 1;
#X obj 49 176 tgl 15 1 \$0-start empty Start 17 7 0 16 -262144 -1 -1
0 1;
#X obj 36 356 cnv 15 433 304 empty empty empty 20 12 0 14 -233017 -66577
0;
#X obj 37 672 cnv 15 433 149 empty empty empty 20 12 0 14 -261234 -66577
0;
#X obj 37 834 cnv 15 433 149 empty empty empty 20 12 0 14 -233017 -66577
0;
#X obj 63 918 dac~;
#X obj 63 892 *~ 0.4;
#N canvas 0 50 450 250 (subpatch) 0;
#X array \$0-Display 440 float 5;
#A 0 0 0 0 0 0 0 0 0 0 0 0 0 0 0 0 0 0 0 0 0 0 0 0 0 0 0 0 0 0 0 0
0 0 0 0 0 0 0 0 0 0 0 0 0 0 0 0 0 0 0 0 0 0 0 0 0 0 0 0 0 0 0 0 0 0
0 0 0 0 0 0 0 0 0 0 0 0 0 0 0 0 0 0 0 0 0 0 0 0 0 0 0 0 0 0 0 0 0 0
0 0 0 0 0 0 0 0 0 0 0 0 0 0 0 0 0 0 0 0 0 0 0 0 0 0 0 0 0 0 0 0 0 0
0 0 0 0 0 0 0 0 0 0 0 0 0 0 0 0 0 0 0 0 0 0 0 0 0 0 0 0 0 0 0 0 0 0
0 0 0 0 0 0 0 0 0 0 0 0 0 0 0 0 0 0 0 0 0 0 0 0 0 0 0 0 0 0 0 0 0 0
0 0 0 0 0 0 0 0 0 0 0 0 0 0 0 0 0 0 0 0 0 0 0 0 0 0 0 0 0 0 0 0 0 0
0 0 0 0 0 0 0 0 0 0 0 0 0 0 0 0 0 0 0 0 0 0 0 0 0 0 0 0 0 0 0 0 0 0
0 0 0 0 0 0 0 0 0 0 0 0 0 0 0 0 0 0 0 0 0 0 0 0 0 0 0 0 0 0 0 0 0 0
0 0 0 0 0 0 0 0 0 0 0 0 0 0 0 0 0 0 0 0 0 0 0 0 0 0 0 0 0 0 0 0 0 0
0 0 0 0 0 0 0 0 0 0 0 0 0 0 0 0 0 0 0 0 0 0 0 0 0 0 0 0 0 0 0 0 0 0
0 0 0 0 0 0 0 0 0 0 0 0 0 0 0 0 0 0 0 0 0 0 0 0 0 0 0 0 0 0 0 0 0 0
0 0 0 0 0 0 0 0 0 0 0 0 0 0 0 0 0 0 0 0 0 0 0 0 0 0 0 0 0 0 0 0 0 0
0;
#X coords 0 1 439 -1 383 259 1;
#X restore 63 383 graph;
#X msg 164 751 stop;
#X obj 164 697 bng 20 250 50 0 empty empty empty 17 7 0 10 -258699
-1 -1;
#X obj 134 697 bng 20 250 50 0 empty empty empty 17 7 0 10 -24198 -1
-1;
#X obj 134 774 writesf~ 2;
#X msg 134 727 open -bytes 4 Noisy_Patch_Expansion.wav \, start;
#X obj 37 997 cnv 15 433 149 empty empty empty 20 12 0 14 -233017 -66577
0;
#X obj 65 1050 tgl 15 0 empty empty empty 17 7 0 10 -262144 -1 -1 1
1;
#X obj 65 1077 metro 100;
#X obj 65 1021 loadbang;
#X obj 141 1077 clip~ -1 1;
#X obj 65 1105 tabwrite~ \$0-Display;
#X obj 63 864 catch~ \$0-Sound;
#X obj 113 892 s~ \$0-Sound-Display;
#X obj 238 892 s~ \$0-record;
#X obj 49 774 r~ \$0-record;
#X obj 141 1051 r~ \$0-Sound-Display;
#X obj 481 163 cnv 15 1230 984 empty empty empty 20 12 0 14 -228856
-66577 0;
#X obj 1291 428 vline~;
#X obj 1276 458 *~;
#X obj 1276 480 *~ 10;
#X obj 1276 502 hip~ 5;
#X obj 1310 386 delay 100;
#X msg 1291 362 1 500;
#X obj 519 409 vline~;
#X obj 504 434 *~;
#X obj 504 478 hip~ 5;
#X obj 538 367 delay 100;
#X msg 519 343 1 500;
#X obj 685 455 vline~;
#X obj 670 479 *~;
#X obj 670 523 hip~ 5;
#X obj 704 413 delay 100;
#X msg 685 389 1 500;
#X obj 685 288 metro 600;
#X obj 670 364 osc~ 300;
#X obj 504 320 osc~ 260;
#X obj 873 423 vline~;
#X obj 858 453 *~;
#X obj 858 497 hip~ 5;
#X obj 892 381 delay 100;
#X msg 873 357 1 500;
#X obj 858 334 osc~ 360;
#X msg 538 389 0 500;
#X msg 704 435 0 500;
#X msg 892 403 0 1500;
#X obj 1011 426 vline~;
#X obj 996 456 *~;
#X obj 996 500 hip~ 5;
#X obj 1030 384 delay 100;
#X msg 1011 360 1 500;
#X obj 996 337 osc~ 300;
#X msg 1030 406 0 1500;
#X obj 1147 426 vline~;
#X obj 1132 456 *~;
#X obj 1132 500 hip~ 5;
#X obj 1166 384 delay 100;
#X msg 1147 360 1 500;
#X msg 1166 406 0 1500;
#X obj 1132 337 osc~ 400;
#X obj 972 298 sel 1 2;
#X obj 972 270 random 3;
#X obj 972 206 metro 1500;
#X obj 1276 339 osc~ 1800;
#X obj 1430 427 vline~;
#X obj 1415 457 *~;
#X obj 1415 479 *~ 10;
#X obj 1415 501 hip~ 5;
#X obj 1449 385 delay 100;
#X msg 1430 361 1 500;
#X obj 1566 426 vline~;
#X obj 1551 456 *~;
#X obj 1551 478 *~ 10;
#X obj 1551 500 hip~ 5;
#X obj 1585 384 delay 100;
#X msg 1566 360 1 500;
#X obj 1416 285 sel 1 2;
#X obj 1416 257 random 3;
#X obj 1416 195 metro 1500;
#X obj 508 820 vline~;
#X obj 493 850 *~;
#X obj 493 872 *~ 10;
#X obj 493 894 hip~ 5;
#X obj 527 778 delay 100;
#X msg 508 754 1 500;
#X obj 493 731 osc~ 1800;
#X obj 644 821 vline~;
#X obj 629 851 *~;
#X obj 629 873 *~ 10;
#X obj 629 896 hip~ 5;
#X obj 663 779 delay 100;
#X msg 644 755 1 500;
#X obj 629 732 osc~ 3800;
#X obj 779 821 vline~;
#X obj 764 851 *~;
#X obj 764 873 *~ 10;
#X obj 764 895 hip~ 5;
#X obj 798 779 delay 100;
#X msg 779 755 1 500;
#X obj 764 732 osc~ 2300;
#X obj 549 696 sel 1 2;
#X obj 549 668 random 3;
#X msg 527 800 0 100;
#X msg 663 801 0 100;
#X msg 798 801 0 100;
#X obj 914 823 vline~;
#X obj 899 853 *~;
#X obj 899 875 *~ 10;
#X obj 899 897 hip~ 5;
#X obj 933 781 delay 100;
#X msg 914 757 1 500;
#X obj 1051 823 vline~;
#X obj 1036 853 *~;
#X obj 1036 875 *~ 10;
#X obj 1036 897 hip~ 5;
#X obj 1070 781 delay 100;
#X msg 1051 757 1 500;
#X obj 1186 822 vline~;
#X obj 1171 852 *~;
#X obj 1171 874 *~ 10;
#X obj 1171 896 hip~ 5;
#X obj 1205 780 delay 100;
#X msg 1186 756 1 500;
#X obj 1024 692 sel 1 2;
#X obj 1024 664 random 3;
#X obj 1024 598 metro 250;
#X msg 933 803 0 500;
#X msg 1070 803 0 500;
#X msg 1205 802 0 500;
#X obj 1171 733 osc~ 300;
#X obj 1036 734 osc~ 800;
#X obj 899 734 osc~ 600;
#X obj 1323 822 vline~;
#X obj 1308 852 *~;
#X obj 1308 874 *~ 10;
#X obj 1308 896 hip~ 5;
#X obj 1342 780 delay 100;
#X msg 1323 756 1 500;
#X msg 1342 802 0 500;
#X obj 1457 822 vline~;
#X obj 1442 852 *~;
#X obj 1442 874 *~ 10;
#X obj 1442 897 hip~ 5;
#X obj 1476 780 delay 100;
#X msg 1457 756 1 500;
#X msg 1476 802 0 500;
#X obj 1592 824 vline~;
#X obj 1577 854 *~;
#X obj 1577 876 *~ 10;
#X obj 1577 898 hip~ 5;
#X obj 1611 782 delay 100;
#X msg 1592 758 1 500;
#X msg 1611 804 0 500;
#X obj 1372 704 sel 1 2;
#X obj 1372 676 random 3;
#X obj 1308 733 osc~ 500;
#X obj 1577 735 osc~ 480;
#X obj 1372 609 metro 500;
#X obj 1442 733 osc~ 380;
#X obj 1415 338 osc~ 1200;
#X obj 1551 337 osc~ 1600;
#X msg 1585 406 0 1000;
#X msg 1449 407 0 1000;
#X msg 1310 408 0 1000;
#X obj 549 606 metro 350;
#X obj 620 1096 freeverb~;
#X obj 690 981 hsl 128 15 0 1 0 0 empty empty empty -2 -8 0 10 -262144
-1 -1 2197 1;
#X msg 687 1005 wet \$1;
#X obj 690 1026 hsl 128 15 0 1 0 0 empty empty empty -2 -8 0 10 -262144
-1 -1 2794 1;
#X obj 690 1071 hsl 128 15 0 1 0 0 empty empty empty -2 -8 0 10 -262144
-1 -1 11392 1;
#X msg 687 1050 dry \$1;
#X msg 687 1095 roomsize \$1;
#X floatatom 734 1005 5 0 0 0 - - -;
#X floatatom 735 1051 5 0 0 0 - - -;
#X floatatom 764 1096 5 0 0 0 - - -;
#X msg 829 1019 0.897;
#X obj 868 981 bng 15 250 50 0 empty empty empty 17 7 0 10 -262144
-1 -1;
#X obj 868 959 loadbang;
#X msg 827 981 0.173;
#X msg 828 1000 0.22;
#X msg 762 266 300;
#X msg 777 290 600;
#X msg 778 317 400;
#X msg 809 291 800;
#X obj 762 242 sel 1 2 3;
#X obj 762 220 random 4;
#X obj 762 197 metro 400;
#X obj 519 258 metro 2000;
#X obj 685 339 spigot;
#X obj 718 317 tgl 15 0 empty \$0-2 empty 17 7 0 10 -262144 -1 -1 0
1;
#X obj 972 249 spigot;
#X obj 1005 227 tgl 15 0 empty \$0-3 empty 17 7 0 10 -262144 -1 -1
0 1;
#X obj 1416 236 spigot;
#X obj 1449 215 tgl 15 0 empty \$0-4 empty 17 7 0 10 -262144 -1 -1
0 1;
#X obj 549 647 spigot;
#X obj 582 625 tgl 15 0 empty \$0-5 empty 17 7 0 10 -262144 -1 -1 0
1;
#X obj 1024 640 spigot;
#X obj 1057 618 tgl 15 0 empty \$0-6 empty 17 7 0 10 -262144 -1 -1
0 1;
#X obj 1372 651 spigot;
#X obj 1405 629 tgl 15 0 empty \$0-7 empty 17 7 0 10 -262144 -1 -1
0 1;
#X obj 519 301 spigot;
#X obj 552 279 tgl 15 0 empty \$0-1 empty 17 7 0 10 -262144 -1 -1 0
1;
#X obj 670 501 *~ 10;
#X obj 504 456 *~ 10;
#X obj 858 475 *~ 10;
#X obj 996 478 *~ 10;
#X obj 1132 478 *~ 10;
#X obj 762 174 r \$0-start;
#X obj 519 233 r \$0-start;
#X obj 685 265 r \$0-start;
#X obj 972 182 r \$0-start;
#X obj 1416 171 r \$0-start;
#X obj 549 582 r \$0-start;
#X obj 1024 567 r \$0-start;
#X obj 1372 585 r \$0-start;
#X obj 620 1120 throw~ \$0-Sound;
#X obj 670 546 throw~ \$0-Sound-Ouput;
#X obj 536 1028 catch~ \$0-Sound-Ouput;
#X obj 504 503 throw~ \$0-Sound-Ouput;
#X obj 858 520 throw~ \$0-Sound-Ouput;
#X obj 996 520 throw~ \$0-Sound-Ouput;
#X obj 1132 520 throw~ \$0-Sound-Ouput;
#X obj 1276 524 throw~ \$0-Sound-Ouput;
#X obj 1415 524 throw~ \$0-Sound-Ouput;
#X obj 1551 524 throw~ \$0-Sound-Ouput;
#X obj 493 917 throw~ \$0-Sound-Ouput;
#X obj 629 917 throw~ \$0-Sound-Ouput;
#X obj 764 917 throw~ \$0-Sound-Ouput;
#X obj 901 917 throw~ \$0-Sound-Ouput;
#X obj 1036 918 throw~ \$0-Sound-Ouput;
#X obj 1171 918 throw~ \$0-Sound-Ouput;
#X obj 1308 918 throw~ \$0-Sound-Ouput;
#X obj 1442 919 throw~ \$0-Sound-Ouput;
#X obj 1577 919 throw~ \$0-Sound-Ouput;
#X obj 536 1054 *~ 50;
#X obj 502 176 tgl 15 0 empty \$0-start empty 17 7 0 10 -262144 -1
-1 0 1;
#X obj 502 196 s \$0-start;
#X obj 49 321 tgl 15 1 \$0-7 empty 7_rythmic_bellish_sounds_(set_2)
17 7 0 10 -262144 -1 -1 0 1;
#X text 11 97 Last Revised: May 11 \, 2021, f 82;
#X text 11 51 Using Pd Vanilla Version 0.51-3, f 82;
#X connect 19 0 18 0;
#X connect 19 0 18 1;
#X connect 19 0 33 0;
#X connect 19 0 34 0;
#X connect 21 0 24 0;
#X connect 22 0 21 0;
#X connect 23 0 25 0;
#X connect 25 0 24 0;
#X connect 27 0 28 0;
#X connect 28 0 31 0;
#X connect 29 0 27 0;
#X connect 30 0 31 0;
#X connect 32 0 19 0;
#X connect 35 0 24 0;
#X connect 35 0 24 1;
#X connect 36 0 30 0;
#X connect 38 0 39 1;
#X connect 39 0 40 0;
#X connect 40 0 41 0;
#X connect 41 0 242 0;
#X connect 42 0 183 0;
#X connect 43 0 38 0;
#X connect 43 0 42 0;
#X connect 44 0 45 1;
#X connect 45 0 223 0;
#X connect 46 0 238 0;
#X connect 47 0 63 0;
#X connect 48 0 44 0;
#X connect 48 0 47 0;
#X connect 49 0 50 1;
#X connect 50 0 222 0;
#X connect 51 0 236 0;
#X connect 52 0 64 0;
#X connect 53 0 49 0;
#X connect 53 0 52 0;
#X connect 54 0 208 0;
#X connect 55 0 50 0;
#X connect 56 0 45 0;
#X connect 57 0 58 1;
#X connect 58 0 224 0;
#X connect 59 0 239 0;
#X connect 60 0 65 0;
#X connect 61 0 57 0;
#X connect 61 0 60 0;
#X connect 62 0 58 0;
#X connect 63 0 44 0;
#X connect 64 0 49 0;
#X connect 65 0 57 0;
#X connect 66 0 67 1;
#X connect 67 0 225 0;
#X connect 68 0 240 0;
#X connect 69 0 72 0;
#X connect 70 0 66 0;
#X connect 70 0 69 0;
#X connect 71 0 67 0;
#X connect 72 0 66 0;
#X connect 73 0 74 1;
#X connect 74 0 226 0;
#X connect 75 0 241 0;
#X connect 76 0 78 0;
#X connect 77 0 73 0;
#X connect 77 0 76 0;
#X connect 78 0 73 0;
#X connect 79 0 74 0;
#X connect 80 0 61 0;
#X connect 80 1 70 0;
#X connect 80 2 77 0;
#X connect 81 0 80 0;
#X connect 82 0 210 0;
#X connect 83 0 39 0;
#X connect 84 0 85 1;
#X connect 85 0 86 0;
#X connect 86 0 87 0;
#X connect 87 0 243 0;
#X connect 88 0 182 0;
#X connect 89 0 84 0;
#X connect 89 0 88 0;
#X connect 90 0 91 1;
#X connect 91 0 92 0;
#X connect 92 0 93 0;
#X connect 93 0 244 0;
#X connect 94 0 181 0;
#X connect 95 0 90 0;
#X connect 95 0 94 0;
#X connect 96 0 43 0;
#X connect 96 1 89 0;
#X connect 96 2 95 0;
#X connect 97 0 96 0;
#X connect 98 0 212 0;
#X connect 99 0 100 1;
#X connect 100 0 101 0;
#X connect 101 0 102 0;
#X connect 102 0 245 0;
#X connect 103 0 122 0;
#X connect 104 0 99 0;
#X connect 104 0 103 0;
#X connect 105 0 100 0;
#X connect 106 0 107 1;
#X connect 107 0 108 0;
#X connect 108 0 109 0;
#X connect 109 0 246 0;
#X connect 110 0 123 0;
#X connect 111 0 106 0;
#X connect 111 0 110 0;
#X connect 112 0 107 0;
#X connect 113 0 114 1;
#X connect 114 0 115 0;
#X connect 115 0 116 0;
#X connect 116 0 247 0;
#X connect 117 0 124 0;
#X connect 118 0 113 0;
#X connect 118 0 117 0;
#X connect 119 0 114 0;
#X connect 120 0 104 0;
#X connect 120 1 111 0;
#X connect 120 2 118 0;
#X connect 121 0 120 0;
#X connect 122 0 99 0;
#X connect 123 0 106 0;
#X connect 124 0 113 0;
#X connect 125 0 126 1;
#X connect 126 0 127 0;
#X connect 127 0 128 0;
#X connect 128 0 248 0;
#X connect 129 0 146 0;
#X connect 130 0 125 0;
#X connect 130 0 129 0;
#X connect 131 0 132 1;
#X connect 132 0 133 0;
#X connect 133 0 134 0;
#X connect 134 0 249 0;
#X connect 135 0 147 0;
#X connect 136 0 131 0;
#X connect 136 0 135 0;
#X connect 137 0 138 1;
#X connect 138 0 139 0;
#X connect 139 0 140 0;
#X connect 140 0 250 0;
#X connect 141 0 148 0;
#X connect 142 0 137 0;
#X connect 142 0 141 0;
#X connect 143 0 130 0;
#X connect 143 1 136 0;
#X connect 143 2 142 0;
#X connect 144 0 143 0;
#X connect 145 0 216 0;
#X connect 146 0 125 0;
#X connect 147 0 131 0;
#X connect 148 0 137 0;
#X connect 149 0 138 0;
#X connect 150 0 132 0;
#X connect 151 0 126 0;
#X connect 152 0 153 1;
#X connect 153 0 154 0;
#X connect 154 0 155 0;
#X connect 155 0 251 0;
#X connect 156 0 158 0;
#X connect 157 0 152 0;
#X connect 157 0 156 0;
#X connect 158 0 152 0;
#X connect 159 0 160 1;
#X connect 160 0 161 0;
#X connect 161 0 162 0;
#X connect 162 0 252 0;
#X connect 163 0 165 0;
#X connect 164 0 159 0;
#X connect 164 0 163 0;
#X connect 165 0 159 0;
#X connect 166 0 167 1;
#X connect 167 0 168 0;
#X connect 168 0 169 0;
#X connect 169 0 253 0;
#X connect 170 0 172 0;
#X connect 171 0 166 0;
#X connect 171 0 170 0;
#X connect 172 0 166 0;
#X connect 173 0 157 0;
#X connect 173 1 164 0;
#X connect 173 2 171 0;
#X connect 174 0 173 0;
#X connect 175 0 153 0;
#X connect 176 0 167 0;
#X connect 177 0 218 0;
#X connect 178 0 160 0;
#X connect 179 0 85 0;
#X connect 180 0 91 0;
#X connect 181 0 90 0;
#X connect 182 0 84 0;
#X connect 183 0 38 0;
#X connect 184 0 214 0;
#X connect 185 0 235 0;
#X connect 185 1 235 0;
#X connect 186 0 187 0;
#X connect 186 0 192 0;
#X connect 187 0 185 0;
#X connect 188 0 190 0;
#X connect 188 0 193 0;
#X connect 189 0 191 0;
#X connect 189 0 194 0;
#X connect 190 0 185 0;
#X connect 191 0 185 0;
#X connect 195 0 189 0;
#X connect 196 0 198 0;
#X connect 196 0 199 0;
#X connect 196 0 195 0;
#X connect 197 0 196 0;
#X connect 198 0 186 0;
#X connect 199 0 188 0;
#X connect 200 0 54 1;
#X connect 201 0 54 1;
#X connect 202 0 54 1;
#X connect 203 0 54 1;
#X connect 204 0 200 0;
#X connect 204 1 201 0;
#X connect 204 2 203 0;
#X connect 204 3 202 0;
#X connect 205 0 204 0;
#X connect 206 0 205 0;
#X connect 207 0 220 0;
#X connect 208 0 53 0;
#X connect 209 0 208 1;
#X connect 210 0 81 0;
#X connect 211 0 210 1;
#X connect 212 0 97 0;
#X connect 213 0 212 1;
#X connect 214 0 121 0;
#X connect 215 0 214 1;
#X connect 216 0 144 0;
#X connect 217 0 216 1;
#X connect 218 0 174 0;
#X connect 219 0 218 1;
#X connect 220 0 48 0;
#X connect 221 0 220 1;
#X connect 222 0 51 0;
#X connect 223 0 46 0;
#X connect 224 0 59 0;
#X connect 225 0 68 0;
#X connect 226 0 75 0;
#X connect 227 0 206 0;
#X connect 228 0 207 0;
#X connect 229 0 54 0;
#X connect 230 0 82 0;
#X connect 231 0 98 0;
#X connect 232 0 184 0;
#X connect 233 0 145 0;
#X connect 234 0 177 0;
#X connect 237 0 254 0;
#X connect 254 0 185 0;
#X connect 255 0 256 0;
