#N canvas 628 220 1170 675 12;
#X obj 166 477 inlet~;
#X obj 250 547 writesf~ 2;
#X obj 325 479 inlet~;
#X msg 369 438 start;
#X msg 423 438 stop;
#X obj 241 394 makefilename %s.wav;
#N canvas 1086 111 589 541 datetime 0;
#X obj 60 112 ISOdate;
#X obj 149 110 ISOtime;
#X obj 59 223 zexy/date -----------;
#X obj 59 170 inlet;
#X obj 60 442 outlet;
#X obj 84 268 makefilename %02d;
#X obj 213 268 makefilename %02d;
#N canvas 0 22 462 312 addzero 0;
#X obj 186 38 inlet;
#X obj 191 255 outlet;
#X obj 188 102 moses 10;
#X obj 244 187 zexy/makesymbol %s;
#X obj 65 187 zexy/makesymbol 0%s;
#X connect 0 0 2 0;
#X connect 2 0 4 0;
#X connect 2 1 3 0;
#X connect 3 0 1 0;
#X connect 4 0 1 0;
#X restore 416 288 pd addzero;
#N canvas 0 22 462 312 addzero 0;
#X obj 186 38 inlet;
#X obj 191 255 outlet;
#X obj 188 102 moses 10;
#X obj 244 187 zexy/makesymbol %s;
#X obj 65 187 zexy/makesymbol 0%s;
#X connect 0 0 2 0;
#X connect 2 0 4 0;
#X connect 2 1 3 0;
#X connect 3 0 1 0;
#X connect 4 0 1 0;
#X restore 496 288 pd addzero;
#X obj 373 237 zexy/time -----------;
#X obj 59 314 pack float symbol symbol float symbol symbol;
#X obj 59 197 t b b;
#X obj 60 415 zexy/makesymbol %s_%s_%s__%s_%s_%s;
#X connect 2 0 10 0;
#X connect 2 1 5 0;
#X connect 2 2 6 0;
#X connect 3 0 11 0;
#X connect 5 0 10 1;
#X connect 6 0 10 2;
#X connect 7 0 10 4;
#X connect 8 0 10 5;
#X connect 9 0 10 3;
#X connect 9 1 7 0;
#X connect 9 2 8 0;
#X connect 10 0 12 0;
#X connect 11 0 2 0;
#X connect 11 1 9 0;
#X connect 12 0 4 0;
#X restore 139 303 pd datetime;
#X obj 139 330 print;
#X obj 139 274 bng 15 250 50 0 empty empty empty 17 7 0 10 #fcfcfc
#000000 #000000;
#X obj 134 229 t b b;
#X obj 169 188 select 0 1;
#X obj 165 156 tgl 15 0 empty empty empty 17 7 0 10 #fcfcfc #000000
#000000 0 1;
#X obj 105 148 cnv 5 15 5 empty empty empty 20 12 0 14 #00f8fc #404040
0;
#X obj 169 148 cnv 5 15 5 empty empty empty 20 12 0 14 #00f8fc #404040
0;
#X text 107 154 record~;
#X msg 241 438 open -bytes 4 \$1;
#X obj 0 0 cnv 15 603 25 empty empty empty 20 12 0 14 #dfdfdf #404040
0;
#X obj 0 26 cnv 15 603 25 empty empty empty 20 12 0 14 #b8b8b8 #404040
0;
#X text 10 29 Contact: thisis8v01d@gmail.com, f 82;
#X text 10 4 8v01d (infinite void), f 82;
#X connect 0 0 1 0;
#X connect 2 0 1 1;
#X connect 3 0 1 0;
#X connect 4 0 1 0;
#X connect 5 0 15 0;
#X connect 6 0 7 0;
#X connect 6 0 5 0;
#X connect 8 0 6 0;
#X connect 9 0 3 0;
#X connect 9 1 6 0;
#X connect 10 0 4 0;
#X connect 10 1 9 0;
#X connect 11 0 10 0;
#X connect 15 0 1 0;
#X coords 0 -1 1 1 80 30 2 104 147;
