#N canvas 517 21 752 682 12;
#X msg 192 59 devices;
#X obj 121 375 iem_alisttosym;
#X obj 121 412 fromsymbol;
#X msg 194 111 close;
#X text 254 59 view available ports;
#X text 254 88 start recieving data from arduino;
#X text 249 111 stop the communication. do this whenever you update
a code to arduino;
#X floatatom 121 502 5 0 0 0 - - -, f 5;
#X floatatom 163 504 5 0 0 0 - - -, f 5;
#X floatatom 204 505 5 0 0 0 - - -, f 5;
#X floatatom 246 506 5 0 0 0 - - -, f 5;
#X floatatom 288 507 5 0 0 0 - - -, f 5;
#X floatatom 330 510 5 0 0 0 - - -, f 5;
#X msg 194 85 open 4;
#X text 252 33 start recieving data from arduino;
#X msg 192 30 open 1;
#X obj 122 255 sel 13 10;
#X obj 120 163 comport 0 9600;
#X obj 121 322 zl group 100;
#X obj 121 460 unpack f f f f f f;
#X obj 126 598 osc~;
#X obj 126 635 dac~;
#X floatatom 168 592 5 0 0 0 - - -, f 5;
#X obj 126 565 * 0.2;
#X obj 216 602 osc~;
#X floatatom 258 596 5 0 0 0 - - -, f 5;
#X obj 216 569 * 0.1;
#X obj 305 602 osc~;
#X floatatom 347 596 5 0 0 0 - - -, f 5;
#X obj 305 569 * 0.3;
#X text 199 252 look for new line characters;
#X text 220 317 group together all the messages. 100 is just an arbitrarily
large number;
#X text 228 371 convert integers into symbols;
#X text 207 410 convert symbols into numbers/messages;
#X connect 0 0 17 0;
#X connect 1 0 2 0;
#X connect 2 0 19 0;
#X connect 3 0 17 0;
#X connect 7 0 23 0;
#X connect 8 0 26 0;
#X connect 9 0 29 0;
#X connect 13 0 17 0;
#X connect 15 0 17 0;
#X connect 16 0 18 0;
#X connect 16 2 18 0;
#X connect 17 0 16 0;
#X connect 18 0 1 0;
#X connect 19 0 7 0;
#X connect 19 1 8 0;
#X connect 19 2 9 0;
#X connect 19 3 10 0;
#X connect 19 4 11 0;
#X connect 19 5 12 0;
#X connect 20 0 21 0;
#X connect 20 0 21 1;
#X connect 23 0 20 0;
#X connect 23 0 22 0;
#X connect 24 0 21 0;
#X connect 24 0 21 1;
#X connect 26 0 24 0;
#X connect 26 0 25 0;
#X connect 27 0 21 0;
#X connect 27 0 21 1;
#X connect 29 0 27 0;
#X connect 29 0 28 0;
