#N canvas -7 0 2044 1036 12;
#X obj 41 107 s \$0-b;
#X obj 43 46 tgl 15 0 empty empty empty 17 7 0 10 #fcfcfc #000000 #000000
1 1;
#X obj 813 308 +~;
#X obj 813 87 i;
#X obj 850 87 + 1;
#X obj 813 230 *~;
#X obj 813 139 route 0;
#X obj 813 45 r \$0-b;
#X obj 731 231 *~;
#X obj 931 688 *~;
#X obj 950 538 r \$0-b;
#X obj 998 726 vcf~ 220 3;
#X obj 40 80 metro 120;
#X obj 654 321 vd~ d;
#X obj 610 431 +~;
#X obj 650 347 *~ 0.75;
#X obj 647 410 *~;
#X obj 729 356 tgl 15 0 empty empty empty 17 7 0 10 #fcfcfc #000000
#000000 1 1;
#X obj 965 228 > 25;
#X obj 646 378 +~;
#X obj 729 328 > 25;
#X obj 950 656 vline~;
#X obj 862 584 noise~;
#X obj 40 150 catch~ \$0-audio;
#X obj 360 700 throw~ \$0-audio;
#X obj 997 833 throw~ \$0-audio;
#X obj 40 270 dac~;
#X obj 1068 595 random 8;
#X obj 1650 710 oscilloscope~;
#X obj 600 590 oscilloscope~;
#X obj 1068 621 + 1;
#X obj 1260 349 i;
#X obj 1260 371 + 1;
#X obj 1238 416 sel 0;
#X obj 1238 482 *~;
#X obj 1238 548 *~;
#X msg 1314 274 2;
#X msg 1314 299 4;
#X msg 1314 323 6;
#X obj 1260 392 mod;
#X obj 1348 212 random 5;
#X msg 1314 370 1;
#X obj 1348 236 sel 0 1 2 3 4;
#X msg 1315 392 0;
#X obj 1348 187 metro 500;
#X msg 1314 345 8;
#X obj 1238 504 *~ 200;
#X obj 1210 300 r \$0-b;
#X obj 1348 161 tgl 15 0 empty empty empty 17 7 0 10 #fcfcfc #000000
#000000 0 1;
#X obj 1348 107 random 500;
#X obj 1348 133 > 250;
#X obj 1238 526 noise~;
#X obj 1028 451 *~ 5000;
#X obj 950 564 random 200;
#X obj 1270 650 oscilloscope~;
#X msg 1238 438 1 5 \, 0 90 5;
#X obj 1238 460 vline~;
#X msg 950 630 1 5 \, 0 \$1 5;
#X obj 814 258 *~ 5;
#X obj 813 204 line~;
#X obj 1030 230 < 25;
#X obj 1030 260 * 100;
#X obj 710 190 noise~;
#X obj 965 254 * 200;
#X obj 650 290 random 20;
#X obj 729 302 random 50;
#X msg 820 170 1 \, 0 20;
#X obj 970 200 random 68;
#X obj 813 113 mod 2;
#X obj 460 350 delread~ d 450;
#X obj 560 380 *~;
#X obj 565 198 > 25;
#X obj 630 200 < 25;
#X obj 570 170 random 68;
#X obj 570 340 phasor~;
#X obj 565 224 * 6;
#X obj 630 230 * 100;
#X obj 332 229 sel 0 1;
#X obj 332 199 random 5;
#X obj 332 258 bng 15 250 50 0 empty empty empty 17 7 0 10 #fcfcfc
#000000 #000000;
#X obj 360 260 bng 15 250 50 0 empty empty empty 17 7 0 10 #fcfcfc
#000000 #000000;
#X obj 380 260 bng 15 250 50 0 empty empty empty 17 7 0 10 #fcfcfc
#000000 #000000;
#X obj 131 107 s \$0-b2;
#X obj 330 160 r \$0-b2;
#X obj 430 410 *~;
#X obj 447 253 route 0;
#X obj 447 214 random 2;
#X obj 450 320 vline~;
#X obj 362 349 phasor~ 200;
#X obj 447 184 r \$0-b;
#X msg 447 284 1 5 \, 0 90 5;
#X msg 360 300 400;
#X msg 329 299 500;
#X obj 813 282 phasor~;
#X obj 70 230 delwrite~ d 500;
#X obj 130 80 metro 800;
#X obj 1680 440 phasor~;
#X obj 1770 290 i;
#X obj 1775 324 + 1;
#X obj 1758 376 sel 0;
#X obj 1750 470 *~;
#X obj 1720 570 *~;
#X obj 1730 260 r \$0-b;
#X obj 1758 440 vline~;
#X obj 1750 520 *~ 50;
#X obj 1635 384 * 100;
#X obj 1700 390 * 20;
#X msg 1758 408 1 5 \, 0 90 5;
#X obj 1670 530 phasor~;
#X obj 1650 500 * 5;
#X obj 1690 500 * 2;
#X obj 97 187 record~;
#X obj 910 860 oscilloscope~;
#X obj 1238 577 hip~ 5;
#X obj 1640 330 random 10;
#X obj 1635 358 > 5;
#X obj 1700 360 < 8;
#X msg 1826 233 4;
#X msg 1827 326 0;
#X obj 1780 350 mod;
#X obj 880 140 s \$0-b3;
#X obj 1640 290 r \$0-b3;
#X obj 1762 139 sel 0 1;
#X obj 1762 168 bng 15 250 50 0 empty empty empty 17 7 0 10 #fcfcfc
#000000 #000000;
#X obj 1790 170 bng 15 250 50 0 empty empty empty 17 7 0 10 #fcfcfc
#000000 #000000;
#X obj 1810 170 bng 15 250 50 0 empty empty empty 17 7 0 10 #fcfcfc
#000000 #000000;
#X obj 211 107 s \$0-b4;
#X obj 210 80 metro 1800;
#X obj 1760 70 r \$0-b4;
#X obj 1762 109 random 8;
#X obj 40 10 loadbang;
#X obj 1720 600 *~ 0.08;
#X obj 1350 80 spigot;
#X obj 1350 20 r \$0-b3;
#X obj 1390 50 tgl 15 0 empty empty empty 17 7 0 10 #fcfcfc #000000
#000000 1 1;
#X text 1040 790 0.8;
#X text 1310 610 0.4;
#X text 1770 630 2;
#X text 1120 430 0.5;
#X text 1120 450 5.5;
#X obj 0 -99 cnv 15 603 25 empty empty empty 20 12 0 14 #dfdfdf #404040
0;
#X obj 0 -73 cnv 15 603 25 empty empty empty 20 12 0 14 #b8b8b8 #404040
0;
#X text 10 -70 Contact: thisis8v01d@gmail.com, f 82;
#X text 10 -95 8v01d (infinite void), f 82;
#X obj 40 330 oscilloscope~;
#X text 660 500 0.5;
#X obj 1028 427 phasor~ 0.5;
#X obj 1720 629 /~;
#X obj 610 500 *~;
#X obj 1240 610 *~;
#X obj 966 792 *~;
#X connect 1 0 12 0;
#X connect 1 0 95 0;
#X connect 1 0 127 0;
#X connect 2 0 19 1;
#X connect 3 0 4 0;
#X connect 3 0 68 0;
#X connect 4 0 3 1;
#X connect 5 0 8 1;
#X connect 5 0 58 0;
#X connect 6 0 66 0;
#X connect 6 0 64 0;
#X connect 6 0 65 0;
#X connect 6 0 67 0;
#X connect 6 0 73 0;
#X connect 6 0 120 0;
#X connect 7 0 3 0;
#X connect 8 0 2 1;
#X connect 9 0 11 0;
#X connect 10 0 27 0;
#X connect 10 0 53 0;
#X connect 11 0 150 0;
#X connect 12 0 0 0;
#X connect 13 0 15 0;
#X connect 14 0 148 0;
#X connect 15 0 19 0;
#X connect 16 0 14 1;
#X connect 17 0 16 1;
#X connect 18 0 63 0;
#X connect 19 0 16 0;
#X connect 20 0 17 0;
#X connect 21 0 9 1;
#X connect 22 0 9 0;
#X connect 23 0 26 0;
#X connect 23 0 26 1;
#X connect 23 0 111 0;
#X connect 23 0 111 1;
#X connect 23 0 94 0;
#X connect 23 0 144 0;
#X connect 27 0 30 0;
#X connect 30 0 11 2;
#X connect 31 0 32 0;
#X connect 31 0 33 0;
#X connect 32 0 39 0;
#X connect 33 0 55 0;
#X connect 34 0 35 1;
#X connect 34 0 46 0;
#X connect 35 0 113 0;
#X connect 36 0 39 1;
#X connect 37 0 39 1;
#X connect 38 0 39 1;
#X connect 39 0 31 1;
#X connect 40 0 42 0;
#X connect 41 0 39 1;
#X connect 42 0 36 0;
#X connect 42 1 37 0;
#X connect 42 2 38 0;
#X connect 42 3 45 0;
#X connect 42 4 41 0;
#X connect 42 5 43 0;
#X connect 43 0 39 1;
#X connect 44 0 40 0;
#X connect 45 0 39 1;
#X connect 47 0 31 0;
#X connect 48 0 44 0;
#X connect 49 0 50 0;
#X connect 50 0 48 0;
#X connect 51 0 35 0;
#X connect 52 0 11 1;
#X connect 53 0 57 0;
#X connect 55 0 56 0;
#X connect 56 0 34 0;
#X connect 56 0 34 1;
#X connect 57 0 21 0;
#X connect 58 0 93 0;
#X connect 59 0 5 0;
#X connect 59 0 5 1;
#X connect 60 0 61 0;
#X connect 61 0 58 1;
#X connect 62 0 8 0;
#X connect 63 0 58 1;
#X connect 64 0 13 0;
#X connect 65 0 20 0;
#X connect 66 0 59 0;
#X connect 67 0 18 0;
#X connect 67 0 60 0;
#X connect 68 0 6 0;
#X connect 69 0 84 0;
#X connect 70 0 14 0;
#X connect 71 0 75 0;
#X connect 72 0 76 0;
#X connect 73 0 71 0;
#X connect 73 0 72 0;
#X connect 74 0 70 1;
#X connect 75 0 74 0;
#X connect 76 0 74 0;
#X connect 77 0 79 0;
#X connect 77 1 80 0;
#X connect 77 2 81 0;
#X connect 78 0 77 0;
#X connect 79 0 92 0;
#X connect 80 0 91 0;
#X connect 81 0 92 0;
#X connect 83 0 78 0;
#X connect 84 0 70 0;
#X connect 85 0 90 0;
#X connect 86 0 85 0;
#X connect 87 0 84 1;
#X connect 88 0 84 0;
#X connect 89 0 86 0;
#X connect 90 0 87 0;
#X connect 91 0 88 0;
#X connect 92 0 88 0;
#X connect 93 0 2 0;
#X connect 95 0 82 0;
#X connect 96 0 101 1;
#X connect 97 0 98 0;
#X connect 97 0 99 0;
#X connect 98 0 119 0;
#X connect 99 0 107 0;
#X connect 100 0 104 0;
#X connect 101 0 131 0;
#X connect 102 0 97 0;
#X connect 103 0 100 0;
#X connect 103 0 100 1;
#X connect 104 0 101 1;
#X connect 105 0 96 0;
#X connect 105 0 109 0;
#X connect 106 0 96 0;
#X connect 106 0 110 0;
#X connect 107 0 103 0;
#X connect 108 0 101 0;
#X connect 109 0 108 0;
#X connect 110 0 108 0;
#X connect 113 0 149 0;
#X connect 114 0 115 0;
#X connect 114 0 116 0;
#X connect 115 0 105 0;
#X connect 116 0 106 0;
#X connect 117 0 119 1;
#X connect 118 0 119 1;
#X connect 119 0 97 1;
#X connect 119 0 99 0;
#X connect 121 0 114 0;
#X connect 122 0 123 0;
#X connect 122 1 124 0;
#X connect 122 2 125 0;
#X connect 123 0 118 0;
#X connect 125 0 117 0;
#X connect 127 0 126 0;
#X connect 128 0 129 0;
#X connect 129 0 122 0;
#X connect 130 0 1 0;
#X connect 131 0 147 0;
#X connect 132 0 49 0;
#X connect 133 0 132 0;
#X connect 134 0 132 1;
#X connect 146 0 52 0;
#X connect 147 0 28 0;
#X connect 147 0 25 0;
#X connect 148 0 29 0;
#X connect 148 0 24 0;
#X connect 149 0 54 0;
#X connect 149 0 25 0;
#X connect 150 0 112 0;
#X connect 150 0 25 0;
