#N canvas 720 22 720 852 10;
#X obj 276 28 tgl 15 0 empty empty empty 17 7 0 10 #fcfcfc #000000
#000000 1 1;
#X obj 296 165 vline~;
#X obj 209 174 *~;
#X obj 209 196 *~ 10;
#X obj 209 218 hip~ 5;
#X obj 315 123 delay 100;
#X msg 303 99 1 500;
#X obj 209 152 osc~ 560;
#X obj 276 48 metro 1500;
#X obj 391 325 vline~;
#X obj 304 334 *~;
#X obj 304 356 *~ 10;
#X obj 304 378 hip~ 5;
#X obj 410 283 delay 100;
#X msg 398 259 1 500;
#X obj 371 208 metro 400;
#X msg 315 145 0 140;
#X msg 410 305 0 1000;
#X obj 139 403 vline~;
#X obj 52 412 *~;
#X obj 52 434 *~ 10;
#X obj 52 456 hip~ 5;
#X obj 158 361 delay 100;
#X msg 146 337 1 500;
#X msg 158 383 0 1000;
#X obj 119 286 metro 1560;
#X obj 103 255 sel 1 2;
#X obj 102 225 random 2;
#X obj 304 312 osc~ 200;
#X obj 48 285 metro 600;
#X obj 52 390 osc~ 400;
#X obj 209 240 dac~;
#X connect 0 0 8 0;
#X connect 0 0 15 0;
#X connect 1 0 2 1;
#X connect 2 0 3 0;
#X connect 3 0 4 0;
#X connect 4 0 31 0;
#X connect 4 0 31 1;
#X connect 5 0 16 0;
#X connect 6 0 5 0;
#X connect 6 0 1 0;
#X connect 7 0 2 0;
#X connect 8 0 6 0;
#X connect 8 0 27 0;
#X connect 9 0 10 1;
#X connect 10 0 11 0;
#X connect 11 0 12 0;
#X connect 12 0 31 0;
#X connect 12 0 31 1;
#X connect 13 0 17 0;
#X connect 14 0 9 0;
#X connect 14 0 13 0;
#X connect 15 0 14 0;
#X connect 16 0 1 0;
#X connect 17 0 9 0;
#X connect 18 0 19 1;
#X connect 19 0 20 0;
#X connect 20 0 21 0;
#X connect 21 0 31 0;
#X connect 21 0 31 1;
#X connect 22 0 24 0;
#X connect 23 0 18 0;
#X connect 23 0 22 0;
#X connect 24 0 18 0;
#X connect 25 0 23 0;
#X connect 26 0 29 0;
#X connect 26 1 25 0;
#X connect 27 0 26 0;
#X connect 28 0 10 0;
#X connect 29 0 23 0;
#X connect 30 0 19 0;
