#N canvas -7 0 2544 1316 10;
#X obj 1 1 cnv 15 603 62 empty empty empty 20 12 0 14 -233017 -66577
0;
#X obj 1 49 cnv 15 603 25 empty empty empty 20 12 0 14 -191407 -66577
0;
#X text 11 29 by 8v01d (infinite void), f 82;
#X obj 1 72 cnv 15 603 25 empty empty empty 20 12 0 14 -128992 -66577
0;
#X obj 1 95 cnv 15 603 25 empty empty empty 20 12 0 14 -99865 -262144
0;
#X text 11 74 Contact: thisis8v01d@gmail.com, f 82;
#X text 11 51 Using Purr-data Version 2.11.0, f 82;
#X text 12 7 Live Stream 1, f 82;
#X text 11 96 Last Revised: January 1 \, 2021, f 82;
#X obj 438 264 metro 250;
#X obj 438 238 tgl 15 0 empty empty empty 17 7 0 10 -262144 -1 -1 1
1;
#X obj 438 370 random 3;
#X obj 438 395 sel 0 1 2 3;
#X obj 438 422 bng 15 250 50 0 empty empty empty 17 7 0 10 -262144
-1 -1;
#X obj 459 423 bng 15 250 50 0 empty empty empty 17 7 0 10 -262144
-1 -1;
#X obj 480 423 bng 15 250 50 0 empty empty empty 17 7 0 10 -262144
-1 -1;
#X msg 439 505 77;
#X msg 474 515 120;
#X obj 439 530 mtof;
#X obj 439 555 osc~;
#X obj 439 699 *~;
#X obj 439 724 dac~;
#X obj 439 470 loadbang;
#X obj 439 606 *~;
#X obj 479 553 osc~;
#X obj 479 578 *~ 1;
#X obj 454 674 vline~;
#X msg 454 649 1 5 \, 0 300 5;
#X msg 588 515 120;
#X obj 553 530 mtof;
#X obj 553 555 osc~;
#X obj 553 699 *~;
#X obj 553 724 dac~;
#X obj 553 470 loadbang;
#X obj 553 606 *~;
#X obj 593 553 osc~;
#X obj 593 578 *~ 1;
#X obj 568 674 vline~;
#X msg 568 649 1 5 \, 0 300 5;
#X msg 705 518 120;
#X obj 670 533 mtof;
#X obj 670 558 osc~;
#X obj 670 702 *~;
#X obj 670 727 dac~;
#X obj 670 473 loadbang;
#X obj 670 609 *~;
#X obj 710 556 osc~;
#X obj 710 581 *~ 1;
#X obj 685 677 vline~;
#X msg 685 652 1 5 \, 0 300 5;
#X msg 553 504 30;
#X msg 670 508 20;
#X obj 943 388 random 3;
#X obj 943 413 sel 0 1 2 3;
#X obj 943 440 bng 15 250 50 0 empty empty empty 17 7 0 10 -262144
-1 -1;
#X obj 964 441 bng 15 250 50 0 empty empty empty 17 7 0 10 -262144
-1 -1;
#X obj 985 441 bng 15 250 50 0 empty empty empty 17 7 0 10 -262144
-1 -1;
#X obj 944 548 mtof;
#X obj 944 573 osc~;
#X obj 944 717 *~;
#X obj 944 742 dac~;
#X obj 944 488 loadbang;
#X obj 944 624 *~;
#X obj 984 571 osc~;
#X obj 984 596 *~ 1;
#X obj 959 692 vline~;
#X msg 959 667 1 5 \, 0 300 5;
#X obj 1058 548 mtof;
#X obj 1058 573 osc~;
#X obj 1058 717 *~;
#X obj 1058 742 dac~;
#X obj 1058 488 loadbang;
#X obj 1058 624 *~;
#X obj 1098 571 osc~;
#X obj 1098 596 *~ 1;
#X obj 1073 692 vline~;
#X msg 1073 667 1 5 \, 0 300 5;
#X obj 1175 551 mtof;
#X obj 1175 576 osc~;
#X obj 1175 720 *~;
#X obj 1175 745 dac~;
#X obj 1175 491 loadbang;
#X obj 1175 627 *~;
#X obj 1215 574 osc~;
#X obj 1215 599 *~ 1;
#X obj 1190 695 vline~;
#X msg 1190 670 1 5 \, 0 300 5;
#X msg 979 533 20;
#X msg 1093 533 20;
#X msg 1210 536 20;
#X msg 944 523 50;
#X msg 1058 522 40;
#X msg 1175 526 36;
#X obj 438 332 spigot;
#X obj 471 306 tgl 15 0 empty empty empty 17 7 0 10 -262144 -1 -1 0
1;
#X obj 943 351 spigot;
#X obj 976 325 tgl 15 0 empty empty empty 17 7 0 10 -262144 -1 -1 0
1;
#X obj 1318 355 spigot;
#X obj 1351 329 tgl 15 0 empty empty empty 17 7 0 10 -262144 -1 -1
1 1;
#X obj 1318 380 f;
#X obj 1349 379 + 1;
#X obj 1318 405 mod 4;
#X obj 1318 430 sel 0 1 2 3 4;
#X obj 1367 570 mtof;
#X obj 1367 595 osc~;
#X obj 1367 739 *~;
#X obj 1367 764 dac~;
#X obj 1367 510 loadbang;
#X obj 1367 646 *~;
#X obj 1407 593 osc~;
#X obj 1407 618 *~ 1;
#X obj 1382 714 vline~;
#X msg 1402 555 20;
#X obj 1316 458 bng 15 250 50 0 empty empty empty 17 7 0 10 -262144
-1 -1;
#X obj 1337 459 bng 15 250 50 0 empty empty empty 17 7 0 10 -262144
-1 -1;
#X obj 1358 459 bng 15 250 50 0 empty empty empty 17 7 0 10 -262144
-1 -1;
#X obj 1380 461 bng 15 250 50 0 empty empty empty 17 7 0 10 -262144
-1 -1;
#X msg 1367 545 26;
#X obj 1495 572 mtof;
#X obj 1495 597 osc~;
#X obj 1495 741 *~;
#X obj 1495 766 dac~;
#X obj 1495 512 loadbang;
#X obj 1495 648 *~;
#X obj 1535 595 osc~;
#X obj 1535 620 *~ 1;
#X obj 1510 716 vline~;
#X obj 1605 566 mtof;
#X obj 1605 591 osc~;
#X obj 1605 735 *~;
#X obj 1605 760 dac~;
#X obj 1605 506 loadbang;
#X obj 1605 642 *~;
#X obj 1645 589 osc~;
#X obj 1645 614 *~ 1;
#X obj 1620 710 vline~;
#X obj 1719 570 mtof;
#X obj 1719 595 osc~;
#X obj 1719 739 *~;
#X obj 1719 764 dac~;
#X obj 1719 510 loadbang;
#X obj 1719 646 *~;
#X obj 1759 593 osc~;
#X obj 1759 618 *~ 1;
#X obj 1734 714 vline~;
#X msg 1495 546 46;
#X msg 1605 540 36;
#X msg 1719 544 16;
#X msg 1754 555 126;
#X msg 1640 551 109;
#X msg 1530 557 24;
#X msg 1382 688 1 5 \, 0 200 5;
#X msg 1510 690 1 5 \, 0 200 5;
#X msg 1620 683 1 5 \, 0 200 5;
#X msg 1734 688 1 5 \, 0 200 5;
#X obj 993 918 random 3;
#X obj 993 943 sel 0 1 2 3;
#X obj 993 970 bng 15 250 50 0 empty empty empty 17 7 0 10 -262144
-1 -1;
#X obj 1014 971 bng 15 250 50 0 empty empty empty 17 7 0 10 -262144
-1 -1;
#X obj 1035 971 bng 15 250 50 0 empty empty empty 17 7 0 10 -262144
-1 -1;
#X obj 993 881 spigot;
#X obj 1026 855 tgl 15 0 empty empty empty 17 7 0 10 -262144 -1 -1
0 1;
#X obj 992 1013 phasor~ 300;
#X obj 1071 1011 phasor~ 400;
#X obj 1153 1013 phasor~ 500;
#X obj 991 1093 *~;
#X obj 1006 1068 vline~;
#X msg 1006 1042 1 5 \, 0 200 5;
#X obj 1080 1091 *~;
#X obj 1095 1066 vline~;
#X msg 1095 1040 1 5 \, 0 200 5;
#X obj 1189 1091 *~;
#X obj 1204 1066 vline~;
#X msg 1204 1040 1 5 \, 0 200 5;
#X obj 1005 1142 dac~;
#X obj 1488 917 random 3;
#X obj 1488 942 sel 0 1 2 3;
#X obj 1488 969 bng 15 250 50 0 empty empty empty 17 7 0 10 -262144
-1 -1;
#X obj 1509 970 bng 15 250 50 0 empty empty empty 17 7 0 10 -262144
-1 -1;
#X obj 1530 970 bng 15 250 50 0 empty empty empty 17 7 0 10 -262144
-1 -1;
#X obj 1488 880 spigot;
#X obj 1521 854 tgl 15 0 empty empty empty 17 7 0 10 -262144 -1 -1
0 1;
#X obj 1518 1077 *~;
#X obj 1533 1052 vline~;
#X obj 1519 1121 dac~;
#X obj 1481 998 noise~;
#X msg 1533 1025 1 5 \, 0 400 5;
#X connect 9 0 93 0;
#X connect 9 0 95 0;
#X connect 9 0 97 0;
#X connect 9 0 160 0;
#X connect 9 0 180 0;
#X connect 10 0 9 0;
#X connect 11 0 12 0;
#X connect 12 0 13 0;
#X connect 12 1 14 0;
#X connect 12 2 15 0;
#X connect 13 0 27 0;
#X connect 14 0 38 0;
#X connect 15 0 49 0;
#X connect 16 0 18 0;
#X connect 17 0 24 0;
#X connect 18 0 19 0;
#X connect 19 0 23 0;
#X connect 20 0 21 0;
#X connect 20 0 21 1;
#X connect 22 0 16 0;
#X connect 22 0 17 0;
#X connect 23 0 20 0;
#X connect 24 0 25 0;
#X connect 25 0 23 1;
#X connect 26 0 20 1;
#X connect 27 0 26 0;
#X connect 28 0 35 0;
#X connect 29 0 30 0;
#X connect 30 0 34 0;
#X connect 31 0 32 0;
#X connect 31 0 32 1;
#X connect 33 0 50 0;
#X connect 33 0 28 0;
#X connect 34 0 31 0;
#X connect 35 0 36 0;
#X connect 36 0 34 1;
#X connect 37 0 31 1;
#X connect 38 0 37 0;
#X connect 39 0 46 0;
#X connect 40 0 41 0;
#X connect 41 0 45 0;
#X connect 42 0 43 0;
#X connect 42 0 43 1;
#X connect 44 0 51 0;
#X connect 44 0 39 0;
#X connect 45 0 42 0;
#X connect 46 0 47 0;
#X connect 47 0 45 1;
#X connect 48 0 42 1;
#X connect 49 0 48 0;
#X connect 50 0 29 0;
#X connect 51 0 40 0;
#X connect 52 0 53 0;
#X connect 53 0 54 0;
#X connect 53 1 55 0;
#X connect 53 2 56 0;
#X connect 54 0 66 0;
#X connect 55 0 76 0;
#X connect 56 0 86 0;
#X connect 57 0 58 0;
#X connect 58 0 62 0;
#X connect 59 0 60 0;
#X connect 59 0 60 1;
#X connect 61 0 90 0;
#X connect 61 0 87 0;
#X connect 62 0 59 0;
#X connect 63 0 64 0;
#X connect 64 0 62 1;
#X connect 65 0 59 1;
#X connect 66 0 65 0;
#X connect 67 0 68 0;
#X connect 68 0 72 0;
#X connect 69 0 70 0;
#X connect 69 0 70 1;
#X connect 71 0 91 0;
#X connect 71 0 88 0;
#X connect 72 0 69 0;
#X connect 73 0 74 0;
#X connect 74 0 72 1;
#X connect 75 0 69 1;
#X connect 76 0 75 0;
#X connect 77 0 78 0;
#X connect 78 0 82 0;
#X connect 79 0 80 0;
#X connect 79 0 80 1;
#X connect 81 0 92 0;
#X connect 81 0 89 0;
#X connect 82 0 79 0;
#X connect 83 0 84 0;
#X connect 84 0 82 1;
#X connect 85 0 79 1;
#X connect 86 0 85 0;
#X connect 87 0 63 0;
#X connect 88 0 73 0;
#X connect 89 0 83 0;
#X connect 90 0 57 0;
#X connect 91 0 67 0;
#X connect 92 0 77 0;
#X connect 93 0 11 0;
#X connect 94 0 93 1;
#X connect 95 0 52 0;
#X connect 96 0 95 1;
#X connect 97 0 99 0;
#X connect 98 0 97 1;
#X connect 99 0 100 0;
#X connect 99 0 101 0;
#X connect 100 0 99 1;
#X connect 101 0 102 0;
#X connect 102 0 113 0;
#X connect 102 1 114 0;
#X connect 102 2 115 0;
#X connect 102 3 116 0;
#X connect 103 0 104 0;
#X connect 104 0 108 0;
#X connect 105 0 106 0;
#X connect 105 0 106 1;
#X connect 107 0 117 0;
#X connect 107 0 112 0;
#X connect 108 0 105 0;
#X connect 109 0 110 0;
#X connect 110 0 108 1;
#X connect 111 0 105 1;
#X connect 112 0 109 0;
#X connect 113 0 151 0;
#X connect 114 0 152 0;
#X connect 115 0 153 0;
#X connect 116 0 154 0;
#X connect 117 0 103 0;
#X connect 118 0 119 0;
#X connect 119 0 123 0;
#X connect 120 0 121 0;
#X connect 120 0 121 1;
#X connect 122 0 145 0;
#X connect 122 0 150 0;
#X connect 123 0 120 0;
#X connect 124 0 125 0;
#X connect 125 0 123 1;
#X connect 126 0 120 1;
#X connect 127 0 128 0;
#X connect 128 0 132 0;
#X connect 129 0 130 0;
#X connect 129 0 130 1;
#X connect 131 0 146 0;
#X connect 131 0 149 0;
#X connect 132 0 129 0;
#X connect 133 0 134 0;
#X connect 134 0 132 1;
#X connect 135 0 129 1;
#X connect 136 0 137 0;
#X connect 137 0 141 0;
#X connect 138 0 139 0;
#X connect 138 0 139 1;
#X connect 140 0 147 0;
#X connect 140 0 148 0;
#X connect 141 0 138 0;
#X connect 142 0 143 0;
#X connect 143 0 141 1;
#X connect 144 0 138 1;
#X connect 145 0 118 0;
#X connect 146 0 127 0;
#X connect 147 0 136 0;
#X connect 148 0 142 0;
#X connect 149 0 133 0;
#X connect 150 0 124 0;
#X connect 151 0 111 0;
#X connect 152 0 126 0;
#X connect 153 0 135 0;
#X connect 154 0 144 0;
#X connect 155 0 156 0;
#X connect 156 0 157 0;
#X connect 156 1 158 0;
#X connect 156 2 159 0;
#X connect 157 0 167 0;
#X connect 158 0 170 0;
#X connect 159 0 173 0;
#X connect 160 0 155 0;
#X connect 161 0 160 1;
#X connect 162 0 165 0;
#X connect 163 0 168 0;
#X connect 164 0 171 0;
#X connect 165 0 174 0;
#X connect 165 0 174 1;
#X connect 166 0 165 1;
#X connect 167 0 166 0;
#X connect 168 0 174 0;
#X connect 168 0 174 1;
#X connect 169 0 168 1;
#X connect 170 0 169 0;
#X connect 171 0 174 0;
#X connect 171 0 174 1;
#X connect 172 0 171 1;
#X connect 173 0 172 0;
#X connect 175 0 176 0;
#X connect 176 0 177 0;
#X connect 176 1 178 0;
#X connect 176 2 179 0;
#X connect 177 0 186 0;
#X connect 180 0 175 0;
#X connect 181 0 180 1;
#X connect 182 0 184 0;
#X connect 182 0 184 1;
#X connect 183 0 182 1;
#X connect 185 0 182 0;
#X connect 186 0 183 0;
