#N canvas 428 0 2045 699 12;
#X obj 95 183 dac~;
#X msg 60 60 500;
#X msg 98 63 600;
#X msg 135 61 400;
#X msg 175 61 200;
#X obj 95 121 phasor~;
#X connect 1 0 5 0;
#X connect 2 0 5 0;
#X connect 3 0 5 0;
#X connect 4 0 5 0;
#X connect 5 0 0 0;
#X connect 5 0 0 1;
