#N canvas -7 0 2044 1036 12;
#X obj 70 260 dac~;
#X msg 35 79 500;
#X msg 75 79 600;
#X msg 115 79 400;
#X msg 155 79 200;
#X obj 70 140 phasor~;
#X obj 70 230 *~;
#X obj 88 210 tgl 15 0 empty empty empty 17 7 0 10 #fcfcfc #000000
#000000 0 1;
#X obj 10 6 tgl 15 0 empty empty empty 17 7 0 10 #fcfcfc #000000 #000000
0 1;
#X msg 10 30 \; pd dsp \$1;
#X connect 1 0 5 0;
#X connect 2 0 5 0;
#X connect 3 0 5 0;
#X connect 4 0 5 0;
#X connect 5 0 6 0;
#X connect 6 0 0 0;
#X connect 6 0 0 1;
#X connect 7 0 6 1;
#X connect 8 0 9 0;
