#N canvas 0 0 904 614 12;
#X obj 321 499 mtof;
#X obj 320 530 ftom;
#X obj 361 499 powtodb;
#X obj 421 499 rmstodb;
#X obj 361 529 dbtopow;
#X obj 421 529 dbtorms;
#X obj 320 240 mod;
#X obj 360 240 div;
#X obj 320 270 sin;
#X obj 360 270 cos;
#X obj 400 270 tan;
#X obj 440 270 atan;
#X obj 490 270 atan2;
#X obj 360 300 sqrt;
#X obj 400 240 log;
#X obj 460 300 exp;
#X obj 320 300 abs;
#X obj 320 350 random;
#X obj 520 130 max;
#X obj 560 130 min;
#X obj 320 450 clip;
#X obj 320 160 ==;
#X obj 360 160 !=;
#X obj 400 160 >;
#X obj 440 160 <;
#X obj 480 160 >=;
#X obj 520 160 <=;
#X obj 360 130 -;
#X obj 400 130 *;
#X obj 440 130 /;
#X obj 480 130 pow;
#X obj 320 130 +;
#X obj 320 190 &;
#X obj 360 190 &&;
#X obj 400 190 |;
#X obj 440 190 ||;
#X obj 560 190 %;
#X obj 410 300 wrap;
#X obj 480 190 <<;
#X obj 520 190 >>;
#X text 50 500 convert acoustical units;
#X text 50 190 bit twiddling;
#X text 50 160 relational tests;
#X text 50 130 arithmetic;
#X text 50 350 lower math;
#X text 50 240 higher math;
#X text 50 450 force a number into a range;
#X obj 320 400 expr;
#X text 110 690 & AND;
#X obj 50 690 &;
#X text 110 720 | OR;
#X text 110 780 >> RIGHT-SHIFT;
#X text 110 750 << LEFT-SHIFT;
#X text 110 810 && LOGICAL AND;
#X text 110 840 || LOGICAL OR;
#X text 110 870 % MODULUS;
#X obj 50 720 |;
#X obj 50 750 <<;
#X obj 50 780 >>;
#X obj 50 810 &&;
#X obj 50 840 ||;
#X obj 50 870 %;
#X obj 400 690 ==;
#X obj 400 720 !=;
#X obj 400 750 >;
#X obj 400 780 <;
#X obj 400 810 >=;
#X obj 400 840 <=;
#X text 460 690 IS EQUAL TO;
#X text 460 720 IS NOT EQUAL TO;
#X text 460 750 GREATER THAN;
#X text 460 780 LESS THAN;
#X text 460 810 GREATER THAN OR EQUAL TO;
#X text 460 840 LESS THAN OR EQUAL TO;
#X obj 400 900 mod;
#X obj 400 870 div;
#X text 460 870 OUTLET RESULTS WITH NO REMAINDER;
#X obj 30 650 cnv 15 227 33 empty empty Logical\\\ Operators 20 12
0 20 #ffffff #404040 0;
#X obj 380 650 cnv 15 267 30 empty empty Relational\\\ Operators 20
12 0 20 #ffffff #404040 0;
#X text 460 900 OUTLET PRODUCES REMAINDERS;
#X text 650 270 trigonometric functions;
#X text 650 300 unary (one-input) operators;
#X text 650 350 pseudo random integers;
#X text 650 160 binary (two-input) operators;
#X obj 30 40 cnv 15 100 60 empty empty Math 20 12 0 60 #ffffff #404040
0;
#X text 50 400 c-style expressions;
