#N canvas 0 0 625 309 12;
#X floatatom 20 150 5 0 0 0 - - -, f 5;
#X msg 20 30 10;
#X obj 20 90 + 5;
#X floatatom 100 150 5 0 0 0 - - -, f 5;
#X msg 100 30 10;
#X obj 100 90 - 5;
#X floatatom 190 150 5 0 0 0 - - -, f 5;
#X msg 190 30 10;
#X obj 190 90 * 5;
#X floatatom 270 150 5 0 0 0 - - -, f 5;
#X msg 270 30 10;
#X obj 270 90 / 5;
#X connect 1 0 2 0;
#X connect 2 0 0 0;
#X connect 4 0 5 0;
#X connect 5 0 3 0;
#X connect 7 0 8 0;
#X connect 8 0 6 0;
#X connect 10 0 11 0;
#X connect 11 0 9 0;
