#N canvas 335 0 513 294 10;
#X obj 10 10 bng 89 250 50 0 empty empty empty 17 7 0 10 #fcfcfc #000000
#000000;
#X obj 130 10 trigger bang bang;
#X obj 130 40 t b b;
#X obj 130 90 bng 15 250 50 0 empty empty empty 17 7 0 10 #fcfcfc #000000
#000000;
#X obj 130 113 t b b;
#X obj 130 140 print 2nd;
#X obj 200 140 print 1st;
#X obj 10 120 loadbang;
#X obj 10 145 tgl 91 0 empty empty empty 17 7 0 10 #fcfcfc #000000
#000000 1 1;
#X connect 3 0 4 0;
#X connect 4 0 5 0;
#X connect 4 1 6 0;
#X connect 7 0 8 0;
