#N canvas 409 213 623 469 10;
#X obj 10 7 tgl 15 0 empty empty empty 17 7 0 10 #fcfcfc #000000 #000000
0 1;
#X obj 10 30 metro 300;
#X obj 10 55 bng 15 250 50 0 empty empty empty 17 7 0 10 #fcfcfc #000000
#000000;
#X obj 90 7 tgl 15 0 empty empty empty 17 7 0 10 #fcfcfc #000000 #000000
0 1;
#X obj 90 55 bng 15 250 50 0 empty empty empty 17 7 0 10 #fcfcfc #000000
#000000;
#X obj 170 7 tgl 15 0 empty empty empty 17 7 0 10 #fcfcfc #000000 #000000
0 1;
#X obj 170 55 bng 15 250 50 0 empty empty empty 17 7 0 10 #fcfcfc #000000
#000000;
#X obj 250 7 tgl 15 0 empty empty empty 17 7 0 10 #fcfcfc #000000 #000000
0 1;
#X obj 250 55 bng 15 250 50 0 empty empty empty 17 7 0 10 #fcfcfc #000000
#000000;
#X obj 330 7 tgl 15 0 empty empty empty 17 7 0 10 #fcfcfc #000000 #000000
0 1;
#X obj 330 55 bng 15 250 50 0 empty empty empty 17 7 0 10 #fcfcfc #000000
#000000;
#X obj 410 7 tgl 15 0 empty empty empty 17 7 0 10 #fcfcfc #000000 #000000
0 1;
#X obj 410 55 bng 15 250 50 0 empty empty empty 17 7 0 10 #fcfcfc #000000
#000000;
#X obj 90 30 metro 400;
#X obj 170 30 metro 500;
#X obj 250 30 metro 1000;
#X obj 330 30 metro 1500;
#X obj 410 30 metro 2000;
#X obj 120 180 metro 500;
#X obj 120 205 bng 15 250 50 0 empty empty empty 17 7 0 10 #fcfcfc
#000000 #000000;
#X msg 120 130 1;
#X msg 150 130 0;
#X msg 200 150 bang;
#X msg 200 180 stop;
#X connect 0 0 1 0;
#X connect 1 0 2 0;
#X connect 3 0 13 0;
#X connect 5 0 14 0;
#X connect 7 0 15 0;
#X connect 9 0 16 0;
#X connect 11 0 17 0;
#X connect 13 0 4 0;
#X connect 14 0 6 0;
#X connect 15 0 8 0;
#X connect 16 0 10 0;
#X connect 17 0 12 0;
#X connect 18 0 19 0;
#X connect 20 0 18 0;
#X connect 21 0 18 0;
#X connect 22 0 18 0;
#X connect 23 0 18 0;
