#N canvas -1928 -8 1920 1036 10;
#X obj 30 50 float;
#X floatatom 30 75 5 0 0 0 - - -, f 5;
#X obj 80 10 bng 15 250 50 0 empty empty empty 17 7 0 10 #fcfcfc #000000
#000000;
#X floatatom 110 75 5 0 0 0 - - -, f 5;
#X obj 110 50 f;
#X floatatom 30 185 5 0 0 0 - - -, f 5;
#X obj 80 120 bng 15 250 50 0 empty empty empty 17 7 0 10 #fcfcfc #000000
#000000;
#X floatatom 110 185 5 0 0 0 - - -, f 5;
#X obj 30 160 float 26;
#X obj 110 160 f 6;
#X obj 210 7 tgl 15 0 empty empty empty 17 7 0 10 #fcfcfc #000000 #000000
0 1;
#X obj 210 30 metro 500;
#X obj 235 62 bng 15 250 50 0 empty empty empty 17 7 0 10 #fcfcfc #000000
#000000;
#X obj 210 90 f;
#X obj 240 90 + 1;
#X floatatom 210 140 5 0 0 0 - - -, f 5;
#X obj 210 115 % 4;
#X obj 210 164 select 0 1 2 3 4;
#X obj 210 190 bng 15 250 50 0 empty empty empty 17 7 0 10 #fcfcfc
#000000 #000000;
#X obj 230 190 bng 15 250 50 0 empty empty empty 17 7 0 10 #fcfcfc
#000000 #000000;
#X obj 250 190 bng 15 250 50 0 empty empty empty 17 7 0 10 #fcfcfc
#000000 #000000;
#X obj 270 190 bng 15 250 50 0 empty empty empty 17 7 0 10 #fcfcfc
#000000 #000000;
#X floatatom 210 210 5 0 0 0 - - -, f 5;
#X floatatom 250 210 5 0 0 0 - - -, f 5;
#X floatatom 290 210 5 0 0 0 - - -, f 5;
#X floatatom 330 210 5 0 0 0 - - -, f 5;
#X obj 210 240 osc~;
#X obj 210 265 dac~;
#X connect 0 0 1 0;
#X connect 2 0 0 0;
#X connect 2 0 4 0;
#X connect 4 0 3 0;
#X connect 6 0 8 0;
#X connect 6 0 9 0;
#X connect 8 0 5 0;
#X connect 9 0 7 0;
#X connect 10 0 11 0;
#X connect 11 0 12 0;
#X connect 11 0 13 0;
#X connect 13 0 14 0;
#X connect 13 0 16 0;
#X connect 14 0 13 1;
#X connect 15 0 17 0;
#X connect 16 0 15 0;
#X connect 17 0 18 0;
#X connect 17 1 19 0;
#X connect 17 2 20 0;
#X connect 17 3 21 0;
#X connect 18 0 22 0;
#X connect 19 0 23 0;
#X connect 20 0 24 0;
#X connect 21 0 25 0;
#X connect 22 0 26 0;
#X connect 23 0 26 0;
#X connect 24 0 26 0;
#X connect 25 0 26 0;
#X connect 26 0 27 0;
#X connect 26 0 27 1;
