#N canvas -1928 -8 1920 1036 10;
#X obj 10 10 osc~ 500;
#X obj 10 80 *~ 0.1;
#X obj 10 130 dac~;
#X obj 50 60 hsl 128 15 0 1 0 0 empty empty empty -2 -8 0 10 #fcfcfc
#000000 #000000 0 1;
#X obj 70 120 pvu~;
#X obj 70 145 vu 15 120 empty empty -1 -8 0 10 #404040 #000000 1 0
;
#X connect 0 0 1 0;
#X connect 1 0 2 0;
#X connect 1 0 2 1;
#X connect 1 0 4 0;
#X connect 3 0 1 1;
#X connect 4 0 5 0;
